<svg xmlns="http://www.w3.org/2000/svg" xmlns:xlink="http://www.w3.org/1999/xlink" viewBox="0 0 1717.71 608.22"><defs><style>.cls-1,.cls-41{fill:none;}.cls-2{isolation:isolate;}.cls-3{clip-path:url(#clip-path);}.cls-4{fill:#636363;}.cls-5{fill:url(#Áåçûìÿííûé_ãðàäèåíò_2);}.cls-6{fill:#e1e2e4;}.cls-7{fill:#13131c;}.cls-8{fill:#333;}.cls-9{fill:#666;}.cls-10{fill:#4d4d4d;mix-blend-mode:screen;}.cls-11{fill:#999;}.cls-12{fill:#e6e6e6;}.cls-13,.cls-59{fill:#fff;}.cls-14{fill:#747474;}.cls-15{fill:url(#Áåçûìÿííûé_ãðàäèåíò_6);}.cls-16{fill:#aeaeae;}.cls-17{fill:url(#linear-gradient);}.cls-18{fill:#ffdcc1;}.cls-19{fill:#dae1e9;}.cls-20{fill:#beccd5;}.cls-20,.cls-21,.cls-24,.cls-26,.cls-31,.cls-40,.cls-45{mix-blend-mode:multiply;}.cls-21{fill:#f1e7e7;}.cls-22{fill:url(#linear-gradient-2);}.cls-23{fill:#fec4ad;}.cls-24,.cls-32,.cls-40{fill:#cfcfcf;}.cls-24,.cls-26{opacity:0.4;}.cls-25{fill:#ff4569;}.cls-26{fill:#a6aaab;}.cls-27{fill:#0f2c3d;}.cls-28{fill:#133a50;}.cls-29{fill:#4e2728;}.cls-30{fill:#b6c8e1;}.cls-33{fill:#fec1b2;}.cls-34{fill:url(#linear-gradient-3);}.cls-35{fill:url(#linear-gradient-4);}.cls-36{fill:#feb200;}.cls-37{fill:url(#linear-gradient-5);}.cls-38{fill:#382728;}.cls-39{fill:url(#linear-gradient-6);}.cls-41{stroke:#382728;stroke-miterlimit:10;stroke-width:0.24px;}.cls-42{fill:#45425d;}.cls-43{fill:#00b76c;}.cls-44,.cls-45{opacity:0.29;}.cls-44{fill:url(#linear-gradient-7);}.cls-45{fill:url(#linear-gradient-8);}.cls-46{fill:#000003;}.cls-46,.cls-47,.cls-48,.cls-49,.cls-50,.cls-51,.cls-52,.cls-53,.cls-54,.cls-55,.cls-56,.cls-57,.cls-58,.cls-59,.cls-60,.cls-61,.cls-62,.cls-63,.cls-64,.cls-65,.cls-66,.cls-67,.cls-68,.cls-69,.cls-70,.cls-71,.cls-72,.cls-73,.cls-74,.cls-75{fill-rule:evenodd;}.cls-47{fill:#33932e;}.cls-48{fill:#154c14;}.cls-49{fill:#2c9a46;}.cls-50{fill:#2c8028;}.cls-51{fill:#276c21;}.cls-52{fill:#000001;}.cls-53{fill:#000002;}.cls-54{fill:#359c31;}.cls-55{fill:#3daa33;}.cls-56{fill:#360100;}.cls-57{fill:#180000;}.cls-58,.cls-87{fill:#1a1a1a;}.cls-60{fill:#464545;}.cls-61{fill:#616262;}.cls-62{fill:#b2b3b3;}.cls-63{fill:#252626;}.cls-64{fill:#e6e6e5;}.cls-65{fill:#f0f0f0;}.cls-66{fill:#dd300d;}.cls-67{fill:#e5340d;}.cls-68{fill:#ccccce;}.cls-69{fill:#1a1a18;}.cls-70{fill:#9eb3b4;}.cls-70,.cls-71,.cls-72{opacity:0.81;}.cls-71{fill:#5b7f84;}.cls-72{fill:#abd7df;}.cls-73{fill:#c4e4ea;}.cls-73,.cls-74,.cls-75{opacity:0.77;}.cls-74{fill:#486e75;}.cls-75{fill:#f0f8fd;}.cls-76{fill:#f2dbc2;}.cls-77{fill:#7c9600;}.cls-78{fill:#d0e85a;}.cls-79{fill:#9db52a;}.cls-80{fill:#e7ff73;}.cls-81{fill:#595959;}.cls-82{fill:#404040;}.cls-83{fill:#c0d94c;}.cls-84{fill:#bfbfbf;}.cls-85{fill:#737373;}.cls-86{fill:#f2f2f2;}.cls-88{fill:url(#linear-gradient-9);}.cls-89{fill:#3089db;}.cls-90{fill:#61c7ff;}.cls-91{fill:#3cb7fb;}.cls-92{fill:#82d3ff;}.cls-93{fill:#ccc;}</style><clipPath id="clip-path" transform="translate(967.71 79.51)"><rect class="cls-1" y="2.98" width="750" height="497.02" rx="1.03"/></clipPath><linearGradient id="Áåçûìÿííûé_ãðàäèåíò_2" x1="401.64" y1="140.54" x2="394.19" y2="154.21" gradientTransform="translate(112.62 523.19) rotate(-62.34)" gradientUnits="userSpaceOnUse"><stop offset="0" stop-color="#636363"/><stop offset="0.49" stop-color="#e6e6e6"/><stop offset="1" stop-color="#e6e6e6"/></linearGradient><linearGradient id="Áåçûìÿííûé_ãðàäèåíò_6" x1="526.2" y1="280.38" x2="515.75" y2="293.21" gradientTransform="translate(-97.06 577.08) rotate(-64.54)" gradientUnits="userSpaceOnUse"><stop offset="0" stop-color="#e6e6e6"/><stop offset="1" stop-color="#999"/></linearGradient><linearGradient id="linear-gradient" x1="384.5" y1="462.53" x2="334.03" y2="250.87" gradientUnits="userSpaceOnUse"><stop offset="0" stop-color="#00554a"/><stop offset="1" stop-color="#effe9b"/></linearGradient><linearGradient id="linear-gradient-2" x1="352.91" y1="465.71" x2="308.19" y2="365.09" gradientUnits="userSpaceOnUse"><stop offset="0" stop-color="#43b38a"/><stop offset="1" stop-color="#effe9b"/></linearGradient><linearGradient id="linear-gradient-3" x1="462.64" y1="395.08" x2="494.92" y2="395.08" gradientTransform="matrix(0.64, 0.76, -0.76, 0.64, 307.18, -194.88)" gradientUnits="userSpaceOnUse"><stop offset="0" stop-color="#272438"/><stop offset="1" stop-color="#304260"/></linearGradient><linearGradient id="linear-gradient-4" x1="638.1" y1="210.61" x2="669.6" y2="210.61" gradientTransform="translate(-249.59 206.95) rotate(2.05)" xlink:href="#linear-gradient-3"/><linearGradient id="linear-gradient-5" x1="614.18" y1="307.48" x2="653.17" y2="307.48" gradientTransform="matrix(-1, 0, 0, 1, 986.56, 0)" xlink:href="#linear-gradient-3"/><linearGradient id="linear-gradient-6" x1="603.4" y1="311.02" x2="647.96" y2="311.02" gradientTransform="matrix(-1, 0, 0, 1, 986.56, 0)" xlink:href="#linear-gradient-3"/><linearGradient id="linear-gradient-7" x1="519.47" y1="226.99" x2="572.56" y2="226.99" gradientTransform="translate(801.81 123.01) rotate(-4.24)" gradientUnits="userSpaceOnUse"><stop offset="0" stop-color="#dae1e9"/><stop offset="1" stop-color="#dde5e9"/></linearGradient><linearGradient id="linear-gradient-8" x1="572.54" y1="225.15" x2="589.83" y2="225.15" gradientTransform="translate(801.81 123.01) rotate(-4.24)" gradientUnits="userSpaceOnUse"><stop offset="0" stop-color="#beccd5"/><stop offset="1" stop-color="#a3bbc3"/></linearGradient><linearGradient id="linear-gradient-9" x1="49.1" y1="351.11" x2="90.05" y2="290.45" gradientUnits="userSpaceOnUse"><stop offset="0" stop-color="#73c16a"/><stop offset="1" stop-color="#ffe042"/></linearGradient></defs><g class="cls-2"><g id="OBJECTS"><g class="cls-3"><path class="cls-4" d="M417.34,234.88l8.54,5.73a.88.88,0,0,1,.39.66l.51,5.15-.06,0-.37,1.25.82.54a.35.35,0,0,0,.39,0l8.63-5.29a1.16,1.16,0,0,0,.4-1.19l-1.47-5.62a1.55,1.55,0,0,0-.62-.88l-8.43-5.65Z" transform="translate(967.71 79.51)"/><path class="cls-5" d="M416.83,235.39l8.54,5.72a.92.92,0,0,1,.39.66l.35,5.33c0,.48.34.73.67.53l8.63-5.29a1.17,1.17,0,0,0,.4-1.19l-1.2-4.58a1.51,1.51,0,0,0-.62-.88L425.56,230Z" transform="translate(967.71 79.51)"/><path class="cls-4" d="M409,206.28,376.85,226a1,1,0,0,0-.5,1h0v0l.18,1.14.46,0v-.09a4.35,4.35,0,0,0,.51.41l14,9.39,9.82,6.58,2.58,1.73c1.25.84,3,1.08,3.86.54L440,227l.05,0,.64.28-.21-1.3a2.51,2.51,0,0,0-1.15-1.43l-2.58-1.73-9.82-6.58-14-9.39C411.63,206,409.9,205.74,409,206.28Z" transform="translate(967.71 79.51)"/><path class="cls-6" d="M440.13,228.2,408,247.91c-.89.54-2.61.3-3.86-.54l-12.4-8.31,35.36-21.67,12.4,8.31C440.72,226.54,441,227.66,440.13,228.2Z" transform="translate(967.71 79.51)"/><path class="cls-7" d="M436.89,224l-35.36,21.67-23.83-16c-1.25-.84-1.54-1.95-.66-2.49l32.17-19.71c.88-.54,2.61-.3,3.85.53Z" transform="translate(967.71 79.51)"/><path class="cls-8" d="M432.91,224.29,402.05,243.2a1.1,1.1,0,0,1-1.19-.12l-20.77-13.92c-.32-.22-.4-.69-.14-.85l30.86-18.91a1.12,1.12,0,0,1,1.19.12l20.78,13.92C433.1,223.66,433.17,224.13,432.91,224.29Z" transform="translate(967.71 79.51)"/><polygon class="cls-9" points="1368.68 304.79 1371.94 303.74 1375.56 304.64 1377.72 307.9 1372.18 308.57 1368.56 306.79 1368.68 304.79"/><polygon class="cls-9" points="1372.18 308.57 1375.03 310.84 1374.2 317.15 1375.9 310.85 1373.37 308.42 1372.18 308.57"/><polygon class="cls-9" points="1377.72 307.9 1379.34 307.89 1381.34 311.66 1389.85 310.4 1381.91 309.93 1379.78 307.2 1377.22 307.15 1377.72 307.9"/><polygon class="cls-9" points="1375.56 304.64 1377.92 302.58 1376.37 298.79 1376.34 295.64 1375.48 298.77 1376.71 302.28 1373.61 304.15 1375.56 304.64"/><polygon class="cls-9" points="1368.68 304.79 1366.7 303.58 1359.93 303.5 1358.79 302.86 1355.55 303.31 1358.69 303.27 1359.83 304.2 1366.53 304.3 1368.61 305.91 1368.68 304.79"/><polygon class="cls-9" points="1368.56 306.79 1365.59 307.76 1363.74 314.38 1366.7 308.27 1370.5 307.74 1368.56 306.79"/><path class="cls-10" d="M404.41,213.33l.24,28.27-2.6,1.59a1.09,1.09,0,0,1-1.19-.11L397.77,241l-.21-23.49Z" transform="translate(967.71 79.51)"/><path class="cls-10" d="M412,209.52l5,3.37.18,21-6.84,4.2-.24-28.28.68-.42A1.1,1.1,0,0,1,412,209.52Z" transform="translate(967.71 79.51)"/><path class="cls-11" d="M392.9,191.44l9.54,33.27L408.25,245a4.22,4.22,0,0,1-1,4l-2.5,2.3-2.08,0-2.25,0H400l-.77,0h-1.09l-1.79,0h-.27l-.89,0h-3l-6.82-23.78-6.66-23.23a4.27,4.27,0,0,1,1-4l10.72-9.87.21-1.06h0l1.36.69A1.9,1.9,0,0,1,392.9,191.44Z" transform="translate(967.71 79.51)"/><path class="cls-12" d="M391.56,190.78l9.74,33.95,5.63,19.6a4.26,4.26,0,0,1-1,4l-3.25,3-2.25,0H400l-.77,0h-1.09l-1.79,0h-.27l-.89,0H391.1l-6.22-21.72-7.46-26a4.25,4.25,0,0,1,1-4l10.78-9.93a1.3,1.3,0,0,1,1.48-.34A1.77,1.77,0,0,1,391.56,190.78Z" transform="translate(967.71 79.51)"/><path class="cls-13" d="M379.82,204.74l-.7-2.43c-.1-.36-.39-.46-.63-.23l-.09.07a1.17,1.17,0,0,0-.26,1.06l.7,2.44c.1.35.38.46.63.23l.09-.08A1.17,1.17,0,0,0,379.82,204.74Z" transform="translate(967.71 79.51)"/><path class="cls-13" d="M381.05,209l-.7-2.43c-.1-.36-.39-.46-.63-.24l-.09.08a1.17,1.17,0,0,0-.26,1.06l.7,2.44c.1.35.38.45.63.23l.09-.08A1.17,1.17,0,0,0,381.05,209Z" transform="translate(967.71 79.51)"/><path class="cls-13" d="M382.27,213.29l-.7-2.44c-.1-.36-.39-.46-.63-.23l-.09.07a1.17,1.17,0,0,0-.26,1.06l.7,2.44c.1.35.39.46.63.23l.09-.08A1.15,1.15,0,0,0,382.27,213.29Z" transform="translate(967.71 79.51)"/><path class="cls-13" d="M383.49,217.56l-.69-2.44c-.11-.36-.39-.46-.64-.23l-.08.08a1.1,1.1,0,0,0-.26,1.05l.69,2.44c.11.36.39.46.64.23l.08-.08A1.1,1.1,0,0,0,383.49,217.56Z" transform="translate(967.71 79.51)"/><path class="cls-13" d="M384.7,221.82l-.7-2.44c-.1-.35-.38-.46-.63-.23l-.08.08a1.13,1.13,0,0,0-.27,1.05l.7,2.44c.1.36.39.46.64.23l.08-.07A1.14,1.14,0,0,0,384.7,221.82Z" transform="translate(967.71 79.51)"/><path class="cls-13" d="M386,226.1l-.7-2.44c-.11-.35-.39-.46-.64-.23l-.08.08a1.1,1.1,0,0,0-.26,1.05L385,227c.1.36.38.46.63.23l.08-.07A1.14,1.14,0,0,0,386,226.1Z" transform="translate(967.71 79.51)"/><path class="cls-13" d="M387.17,230.37l-.7-2.44c-.1-.35-.38-.46-.63-.23l-.08.08a1.14,1.14,0,0,0-.27,1.06l.7,2.43c.1.36.39.46.64.23l.08-.07A1.14,1.14,0,0,0,387.17,230.37Z" transform="translate(967.71 79.51)"/><path class="cls-13" d="M388.4,234.64l-.7-2.44c-.11-.35-.39-.46-.64-.23l-.08.08a1.11,1.11,0,0,0-.26,1.06l.7,2.43c.1.36.38.46.63.23l.08-.07A1.14,1.14,0,0,0,388.4,234.64Z" transform="translate(967.71 79.51)"/><path class="cls-13" d="M389.62,238.91l-.7-2.44c-.1-.35-.38-.45-.63-.23l-.08.08a1.14,1.14,0,0,0-.27,1.06l.7,2.43c.1.36.39.46.63.24l.09-.08A1.14,1.14,0,0,0,389.62,238.91Z" transform="translate(967.71 79.51)"/><path class="cls-13" d="M390.85,243.18l-.7-2.43c-.1-.36-.39-.46-.64-.24l-.08.08a1.14,1.14,0,0,0-.26,1.06l.7,2.44c.1.35.38.45.63.23l.08-.08A1.14,1.14,0,0,0,390.85,243.18Z" transform="translate(967.71 79.51)"/><path class="cls-13" d="M392.07,247.45l-.7-2.43c-.1-.36-.38-.46-.63-.23l-.08.07a1.14,1.14,0,0,0-.27,1.06l.7,2.44c.1.35.39.46.63.23l.09-.08A1.14,1.14,0,0,0,392.07,247.45Z" transform="translate(967.71 79.51)"/><path class="cls-13" d="M392.58,249.28l.62,2.17H392l-.37-1.3a1.15,1.15,0,0,1,.26-1.06l.08-.08C392.19,248.82,392.47,248.92,392.58,249.28Z" transform="translate(967.71 79.51)"/><path class="cls-13" d="M382.19,202.88l-.86-3c-.06-.2-.22-.25-.35-.13l-1.56,1.43a.65.65,0,0,0-.15.59l.87,3c.05.2.21.26.35.13l1.55-1.43A.62.62,0,0,0,382.19,202.88Z" transform="translate(967.71 79.51)"/><path class="cls-13" d="M383.41,207.15l-.86-3c-.06-.2-.21-.25-.35-.13l-1.56,1.43a.62.62,0,0,0-.14.59l.86,3c.06.2.21.26.35.13l1.56-1.43A.65.65,0,0,0,383.41,207.15Z" transform="translate(967.71 79.51)"/><path class="cls-13" d="M384.64,211.42l-.86-3c-.06-.2-.22-.25-.35-.13l-1.56,1.44a.63.63,0,0,0-.15.58l.87,3c.05.2.21.26.35.13l1.55-1.43A.62.62,0,0,0,384.64,211.42Z" transform="translate(967.71 79.51)"/><path class="cls-13" d="M385.89,215.71l-.86-3c-.06-.2-.22-.26-.35-.13L383.12,214a.65.65,0,0,0-.15.59l.87,3c.05.19.21.25.35.13l1.55-1.44A.61.61,0,0,0,385.89,215.71Z" transform="translate(967.71 79.51)"/><path class="cls-13" d="M387.11,220l-.86-3c-.06-.19-.22-.25-.35-.12l-1.56,1.43a.64.64,0,0,0-.15.59l.87,3c.05.19.21.25.35.12l1.55-1.43A.62.62,0,0,0,387.11,220Z" transform="translate(967.71 79.51)"/><path class="cls-13" d="M388.31,224.23l-.86-3c-.06-.19-.21-.25-.35-.12l-1.56,1.43a.65.65,0,0,0-.14.59l.86,3c.06.19.21.25.35.12l1.56-1.43A.62.62,0,0,0,388.31,224.23Z" transform="translate(967.71 79.51)"/><path class="cls-13" d="M389.55,228.51l-.87-3c-.05-.2-.21-.26-.35-.13l-1.55,1.43a.62.62,0,0,0-.15.59l.86,3c.06.2.22.26.35.13l1.56-1.43A.65.65,0,0,0,389.55,228.51Z" transform="translate(967.71 79.51)"/><path class="cls-13" d="M390.77,232.78l-.87-3c0-.2-.21-.26-.35-.13L388,231.07a.62.62,0,0,0-.15.59l.86,3c.06.2.22.25.35.13l1.56-1.44A.62.62,0,0,0,390.77,232.78Z" transform="translate(967.71 79.51)"/><path class="cls-13" d="M392,237.05l-.86-3c-.06-.2-.22-.26-.35-.13l-1.56,1.43a.65.65,0,0,0-.15.59l.87,3c.05.2.21.25.35.13l1.56-1.43A.65.65,0,0,0,392,237.05Z" transform="translate(967.71 79.51)"/><path class="cls-13" d="M393.21,241.32l-.86-3c-.06-.2-.21-.26-.35-.13l-1.56,1.43a.62.62,0,0,0-.14.59l.86,3c.06.2.21.25.35.13l1.56-1.44A.6.6,0,0,0,393.21,241.32Z" transform="translate(967.71 79.51)"/><path class="cls-13" d="M394.44,245.59l-.86-3c-.06-.2-.21-.26-.35-.13l-1.56,1.43a.65.65,0,0,0-.15.59l.87,3c.05.2.21.26.35.13l1.56-1.43A.65.65,0,0,0,394.44,245.59Z" transform="translate(967.71 79.51)"/><path class="cls-13" d="M394.8,246.85l.87,3a.62.62,0,0,1-.15.59l-1.06,1h-.93l-.78-2.7a.58.58,0,0,1,.15-.58l1.55-1.44C394.59,246.59,394.75,246.65,394.8,246.85Z" transform="translate(967.71 79.51)"/><path class="cls-13" d="M396,251.13l.08.27-.89,0,.46-.42C395.82,250.87,396,250.92,396,251.13Z" transform="translate(967.71 79.51)"/><path class="cls-13" d="M385.69,205.06l-2.11-7.29c-.05-.2-.21-.25-.35-.13l-1.55,1.44a.61.61,0,0,0-.15.58l2.1,7.29c.06.2.22.26.35.13l1.56-1.43A.65.65,0,0,0,385.69,205.06Z" transform="translate(967.71 79.51)"/><path class="cls-13" d="M386.91,209.33l-.86-3c-.06-.2-.21-.25-.35-.13l-1.56,1.44a.62.62,0,0,0-.15.58l.87,3c.06.2.21.26.35.13l1.56-1.43A.65.65,0,0,0,386.91,209.33Z" transform="translate(967.71 79.51)"/><path class="cls-13" d="M388.14,213.6l-.87-3c0-.2-.21-.25-.35-.13l-1.55,1.44a.61.61,0,0,0-.15.58l.86,3c.06.2.22.26.36.13l1.55-1.43A.65.65,0,0,0,388.14,213.6Z" transform="translate(967.71 79.51)"/><path class="cls-13" d="M389.36,217.87l-.86-3c-.06-.19-.21-.25-.35-.13l-1.56,1.44a.6.6,0,0,0-.14.58l.86,3c.06.2.21.26.35.13l1.56-1.43A.65.65,0,0,0,389.36,217.87Z" transform="translate(967.71 79.51)"/><path class="cls-13" d="M390.58,222.14l-.86-3c-.06-.2-.21-.25-.35-.13l-1.56,1.44a.6.6,0,0,0-.14.58l.86,3c.06.2.21.26.35.13l1.56-1.43A.65.65,0,0,0,390.58,222.14Z" transform="translate(967.71 79.51)"/><path class="cls-13" d="M391.81,226.41l-.86-3c-.06-.19-.21-.25-.35-.12L389,224.71a.62.62,0,0,0-.14.59l.86,3c.06.19.21.25.35.12l1.56-1.43A.61.61,0,0,0,391.81,226.41Z" transform="translate(967.71 79.51)"/><path class="cls-13" d="M393,230.69l-.86-3c-.06-.2-.22-.26-.36-.13L390.27,229a.62.62,0,0,0-.15.59l.86,3c.06.19.22.25.36.13l1.55-1.44A.61.61,0,0,0,393,230.69Z" transform="translate(967.71 79.51)"/><path class="cls-13" d="M394.26,235l-.86-3c-.06-.2-.21-.26-.35-.13l-1.56,1.43a.65.65,0,0,0-.14.59l.86,3c.06.2.21.25.35.13l1.56-1.44A.6.6,0,0,0,394.26,235Z" transform="translate(967.71 79.51)"/><path class="cls-13" d="M395.49,239.23l-.86-3c-.06-.2-.22-.26-.36-.13l-1.55,1.43a.62.62,0,0,0-.15.59l.87,3c.05.2.21.25.35.13l1.55-1.43A.62.62,0,0,0,395.49,239.23Z" transform="translate(967.71 79.51)"/><path class="cls-13" d="M396.71,243.5l-.86-3c-.06-.2-.22-.26-.35-.13l-1.56,1.43a.65.65,0,0,0-.15.59l.87,3c0,.2.21.25.35.13l1.55-1.44A.61.61,0,0,0,396.71,243.5Z" transform="translate(967.71 79.51)"/><path class="cls-13" d="M397.05,244.72l1.92,6.63h-.8l-1.79,0L395,246.62a.62.62,0,0,1,.15-.59l1.55-1.43A.2.2,0,0,1,397.05,244.72Z" transform="translate(967.71 79.51)"/><path class="cls-13" d="M388.67,205.36l-2.8-9.7c-.06-.2-.21-.25-.35-.13L384,197a.65.65,0,0,0-.14.59l2.79,9.7c.06.2.22.26.35.13l1.56-1.43A.65.65,0,0,0,388.67,205.36Z" transform="translate(967.71 79.51)"/><path class="cls-13" d="M389.9,209.64l-.87-3c0-.2-.21-.26-.35-.13l-1.56,1.43a.65.65,0,0,0-.14.59l.86,3c.06.19.22.25.35.13l1.56-1.44A.63.63,0,0,0,389.9,209.64Z" transform="translate(967.71 79.51)"/><path class="cls-13" d="M391.12,213.92l-.86-3c-.06-.2-.22-.25-.36-.13l-1.55,1.44a.61.61,0,0,0-.15.58l.86,3c.06.2.22.26.36.13l1.55-1.43A.62.62,0,0,0,391.12,213.92Z" transform="translate(967.71 79.51)"/><path class="cls-13" d="M392.35,218.18l-.87-3c-.05-.2-.21-.26-.35-.13l-1.55,1.43a.62.62,0,0,0-.15.59l.86,3c.06.2.22.25.35.13l1.56-1.43A.65.65,0,0,0,392.35,218.18Z" transform="translate(967.71 79.51)"/><path class="cls-13" d="M393.57,222.45l-.86-3c-.06-.2-.22-.26-.35-.13l-1.56,1.43a.65.65,0,0,0-.15.59l.87,3c.05.2.21.26.35.13l1.56-1.43A.65.65,0,0,0,393.57,222.45Z" transform="translate(967.71 79.51)"/><path class="cls-13" d="M394.8,226.72l-.87-3c-.05-.2-.21-.26-.35-.13L392,225a.62.62,0,0,0-.15.59l.86,3c.06.2.22.26.35.13l1.56-1.43A.65.65,0,0,0,394.8,226.72Z" transform="translate(967.71 79.51)"/><path class="cls-13" d="M396,231l-.86-3c-.06-.2-.22-.25-.35-.13l-1.56,1.43a.65.65,0,0,0-.15.59l.87,3c0,.2.21.26.35.13l1.56-1.43A.65.65,0,0,0,396,231Z" transform="translate(967.71 79.51)"/><path class="cls-13" d="M397.25,235.26l-.87-3c-.05-.2-.21-.25-.35-.13l-1.55,1.44a.61.61,0,0,0-.15.58l.86,3c.06.2.22.26.36.13l1.55-1.43A.65.65,0,0,0,397.25,235.26Z" transform="translate(967.71 79.51)"/><path class="cls-13" d="M398.41,239.31l-.86-3c-.06-.19-.22-.25-.35-.13l-1.56,1.44a.63.63,0,0,0-.15.58l.87,3c.05.2.21.26.35.13l1.56-1.43A.65.65,0,0,0,398.41,239.31Z" transform="translate(967.71 79.51)"/><path class="cls-13" d="M398.66,240.23l2.8,9.7a.65.65,0,0,1-.15.59l-.87.8H400l-.77,0-2.66-9.22a.64.64,0,0,1,.15-.59l1.56-1.43C398.44,240,398.6,240,398.66,240.23Z" transform="translate(967.71 79.51)"/><path class="cls-13" d="M389,196.6l-.87-3c0-.2-.21-.26-.35-.13l-1.56,1.43a.65.65,0,0,0-.14.59l.86,3c.06.2.22.25.35.13l1.56-1.44A.62.62,0,0,0,389,196.6Z" transform="translate(967.71 79.51)"/><path class="cls-13" d="M390.24,200.87l-.86-3c-.06-.2-.22-.26-.35-.13l-1.56,1.43a.65.65,0,0,0-.15.59l.87,3c.05.2.21.26.35.13l1.55-1.43A.62.62,0,0,0,390.24,200.87Z" transform="translate(967.71 79.51)"/><path class="cls-13" d="M391.53,205.08l-.87-3c-.05-.19-.21-.25-.35-.12l-1.55,1.43a.61.61,0,0,0-.15.58l.86,3c.06.2.22.26.35.13l1.56-1.43A.65.65,0,0,0,391.53,205.08Z" transform="translate(967.71 79.51)"/><path class="cls-13" d="M392.75,209.35l-.86-3c-.06-.19-.22-.25-.35-.12L390,207.65a.65.65,0,0,0-.15.59l.87,3c.05.19.21.25.35.12l1.56-1.43A.65.65,0,0,0,392.75,209.35Z" transform="translate(967.71 79.51)"/><path class="cls-13" d="M394,213.63l-.87-3c-.05-.2-.21-.26-.35-.13l-1.55,1.43a.62.62,0,0,0-.15.59l.86,3c.06.19.22.25.35.13l1.56-1.44A.63.63,0,0,0,394,213.63Z" transform="translate(967.71 79.51)"/><path class="cls-13" d="M395.2,217.9l-.86-3c-.06-.2-.22-.26-.35-.13l-1.56,1.43a.65.65,0,0,0-.15.59l.87,3c.05.2.21.25.35.13l1.56-1.44A.63.63,0,0,0,395.2,217.9Z" transform="translate(967.71 79.51)"/><path class="cls-13" d="M396.43,222.17l-.87-3c-.05-.2-.21-.26-.35-.13l-1.55,1.43a.62.62,0,0,0-.15.59l.86,3c.06.2.22.25.35.13l1.56-1.44A.62.62,0,0,0,396.43,222.17Z" transform="translate(967.71 79.51)"/><path class="cls-13" d="M397.65,226.44l-.86-3c-.06-.2-.21-.26-.35-.13l-1.56,1.43a.65.65,0,0,0-.15.59l.87,3c.06.2.21.25.35.13l1.56-1.43A.65.65,0,0,0,397.65,226.44Z" transform="translate(967.71 79.51)"/><path class="cls-13" d="M398.88,230.71l-.87-3c-.06-.19-.21-.25-.35-.12L396.1,229a.64.64,0,0,0-.14.59l.86,3c.06.19.21.25.35.12l1.56-1.43A.65.65,0,0,0,398.88,230.71Z" transform="translate(967.71 79.51)"/><path class="cls-13" d="M400.1,235l-.86-3c-.06-.2-.21-.25-.35-.13l-1.56,1.43a.62.62,0,0,0-.14.59l.86,3c.06.2.21.26.35.13l1.56-1.43A.65.65,0,0,0,400.1,235Z" transform="translate(967.71 79.51)"/><path class="cls-13" d="M401.33,239.25l-.86-3c-.06-.2-.22-.25-.36-.13l-1.55,1.44a.6.6,0,0,0-.15.58l.86,3c.06.2.22.26.36.13l1.55-1.43A.62.62,0,0,0,401.33,239.25Z" transform="translate(967.71 79.51)"/><path class="cls-13" d="M403.77,247.77l-2.1-7.29c-.06-.2-.22-.25-.35-.13l-1.56,1.43a.65.65,0,0,0-.15.59l2.11,7.29c0,.2.21.26.35.13l1.56-1.43A.65.65,0,0,0,403.77,247.77Z" transform="translate(967.71 79.51)"/><path class="cls-13" d="M391.4,194.4l-.86-3c-.06-.19-.22-.25-.36-.13l-1.55,1.44a.61.61,0,0,0-.15.58l.86,3c.06.2.22.26.36.13l1.55-1.43A.62.62,0,0,0,391.4,194.4Z" transform="translate(967.71 79.51)"/><path class="cls-13" d="M392.62,198.67l-.86-3c-.06-.19-.21-.25-.35-.12L389.85,197a.65.65,0,0,0-.14.59l.86,3c.06.19.21.25.35.12l1.56-1.43A.62.62,0,0,0,392.62,198.67Z" transform="translate(967.71 79.51)"/><path class="cls-13" d="M393.85,203l-.86-3c-.06-.19-.22-.25-.36-.12l-1.55,1.43a.65.65,0,0,0-.15.59l.87,3c.05.19.21.25.35.13l1.55-1.44A.61.61,0,0,0,393.85,203Z" transform="translate(967.71 79.51)"/><path class="cls-13" d="M395.08,207.22l-.87-3c-.06-.2-.21-.26-.35-.13l-1.56,1.43a.65.65,0,0,0-.14.59l.86,3c.06.2.21.25.35.13l1.56-1.44A.63.63,0,0,0,395.08,207.22Z" transform="translate(967.71 79.51)"/><path class="cls-13" d="M401.2,228.57l-5.78-20.1c-.06-.2-.21-.26-.35-.13l-1.56,1.43a.62.62,0,0,0-.14.59l5.78,20.1c.05.2.21.26.35.13l1.55-1.43A.62.62,0,0,0,401.2,228.57Z" transform="translate(967.71 79.51)"/><path class="cls-13" d="M402.43,232.84l-.87-3c-.05-.2-.21-.25-.35-.13l-1.56,1.44a.63.63,0,0,0-.14.58l.86,3c.06.2.22.26.35.13l1.56-1.43A.65.65,0,0,0,402.43,232.84Z" transform="translate(967.71 79.51)"/><path class="cls-13" d="M403.65,237.11l-.86-3c-.06-.19-.22-.25-.35-.13l-1.56,1.44a.63.63,0,0,0-.15.58l.87,3c0,.2.21.26.35.13l1.56-1.43A.65.65,0,0,0,403.65,237.11Z" transform="translate(967.71 79.51)"/><path class="cls-13" d="M403.69,242.27l-.86-3c-.06-.19-.22-.25-.35-.13l-.41.4a.63.63,0,0,0-.14.58l.86,3c.06.2.22.26.35.13l.41-.39A.65.65,0,0,0,403.69,242.27Z" transform="translate(967.71 79.51)"/><path class="cls-13" d="M404.83,241.22l-.86-3c-.06-.19-.22-.25-.35-.12l-.41.39a.63.63,0,0,0-.14.58l.86,3c.06.2.21.26.35.13l.4-.39A.62.62,0,0,0,404.83,241.22Z" transform="translate(967.71 79.51)"/><path class="cls-13" d="M405,246.68l-.87-3c0-.2-.21-.26-.35-.13l-.4.39a.65.65,0,0,0-.15.59l.87,3c.05.2.21.25.35.13l.4-.39A.65.65,0,0,0,405,246.68Z" transform="translate(967.71 79.51)"/><path class="cls-13" d="M406.1,245.63l-.87-3c-.05-.2-.21-.25-.35-.13l-.4.39a.62.62,0,0,0-.15.59l.86,3c.06.2.22.26.36.13l.4-.39A.65.65,0,0,0,406.1,245.63Z" transform="translate(967.71 79.51)"/><path class="cls-14" d="M388.78,233s-1.5-8.73-3.4-16.38l-2.33,6.07-.34,4.79,1.66,2.94Z" transform="translate(967.71 79.51)"/><path class="cls-15" d="M385.35,216.51c-.21-.29-.88,0-1.1,0a7,7,0,0,0-5.19,5.59,15.89,15.89,0,0,0,.87,7.46,34.79,34.79,0,0,0,2.56,5.82c.17.31.34.62.53.93a1.38,1.38,0,0,0,.2.33s3.91,1.53,5.56-3.67a60.33,60.33,0,0,1-2.1-6.48,37.24,37.24,0,0,1-1.37-8.53,4.91,4.91,0,0,1,.07-1.28A.2.2,0,0,0,385.35,216.51Z" transform="translate(967.71 79.51)"/><path class="cls-11" d="M381.69,220.55l9.84,16.27-1.14,0h-.72l-5.53.09h-.27l-.93,0-1.62,0-7.4-12.24-3.05-5-1.09,0s-.35-1.35.65-1.75l.08,0h0a.54.54,0,0,1,.26,0l4.75.64,4.29.56A3.2,3.2,0,0,1,381.69,220.55Z" transform="translate(967.71 79.51)"/><polygon class="cls-16" points="1349.74 303.14 1350.37 301.66 1350.13 301.26 1349.42 302.91 1349.74 303.14"/><path class="cls-12" d="M381.2,221.67l9.19,15.17h-.72l-5.53.09h-.27l-.93,0-2.05,0h-.71l-6.61-10.9L370,220.18c-.43-.71-.29-1.22.31-1.15l4.93.66,4.11.55A3.11,3.11,0,0,1,381.2,221.67Z" transform="translate(967.71 79.51)"/><path d="M381,222.26l8.82,14.59h-.13l-5.53.09h-.27l-.93,0-2.05,0h-.13l-7-11.59-2.7-4.48c-.39-.62-.26-1.08.27-1l3.72.5,4.28.57A2.81,2.81,0,0,1,381,222.26Z" transform="translate(967.71 79.51)"/><path class="cls-8" d="M380.88,222.32l5.79,9.58,3,4.95-6.73.12-2.05,0-7.1-11.73-2.65-4.38a.85.85,0,0,1-.16-.68c.06-.15.23-.15.36-.14l3.67.49,4.32.57a1.73,1.73,0,0,1,.74.34A3,3,0,0,1,380.88,222.32Z" transform="translate(967.71 79.51)"/><polygon class="cls-9" points="1349.76 311.21 1350.9 311.07 1350.87 310.07 1349.17 308.4 1347.94 309.1 1348.5 310.43 1349.76 311.21"/><polygon class="cls-9" points="1350.9 311.07 1351.95 312.9 1350.42 311.13 1350.9 311.07"/><polygon class="cls-9" points="1347.94 309.1 1346.95 307.69 1342.92 305.32 1347.08 307.54 1348.2 308.95 1347.94 309.1"/><polygon class="cls-9" points="1345.05 306.46 1345.38 305.08 1344.19 303.25 1340.83 301.59 1344.19 302.95 1345.76 305.12 1345.61 306.76 1345.05 306.46"/><polygon class="cls-9" points="1349.17 308.4 1349.42 308.12 1347.38 306.27 1347.48 301.75 1347.77 306.16 1350.19 308.28 1349.56 308.78 1349.17 308.4"/><polygon class="cls-9" points="1349.02 307.25 1350.42 306.96 1352.73 309.02 1350.36 307.44 1350.19 308.28 1349.02 307.25"/><polygon class="cls-9" points="1350.87 310.07 1352.5 310.49 1354.15 313.7 1356.09 314.97 1354.03 313.87 1352.51 310.82 1350.89 310.61 1350.87 310.07"/><polygon class="cls-9" points="1349.76 311.21 1350.21 312.04 1349.26 313.25 1350.04 314.54 1349.25 315.14 1349.77 314.39 1348.81 312.98 1349.75 311.78 1349.06 310.78 1349.76 311.21"/><polygon class="cls-9" points="1349.71 312.67 1350.87 314.15 1353.92 315.89 1351.11 313.88 1350.21 312.04 1349.71 312.67"/><polygon class="cls-9" points="1352.29 314.99 1351.77 315.96 1351.85 316.45 1351.58 316.46 1351.33 315.72 1351.68 314.61 1352.29 314.99"/><polygon class="cls-9" points="1348.5 310.43 1347.46 310.56 1344.81 308.9 1347.31 310.17 1348.2 309.72 1348.5 310.43"/><path class="cls-10" d="M380.88,222.32l.07.13-4.86,6.6-3.49-5.75,2-2.79,4.69.62a1.75,1.75,0,0,1,.73.34A3,3,0,0,1,380.88,222.32Z" transform="translate(967.71 79.51)"/><polygon class="cls-10" points="1354.38 311.41 1357.38 316.36 1350.65 316.48 1354.38 311.41"/><path class="cls-11" d="M426.27,202.12h0a2.23,2.23,0,0,1,.28.44l3.31,6.81,3.46,7.13L433,218l-.2.77,0,.18-.89,3.42-1.67,6.49-.59,2.28v0l-.13.48-.44,1.7a3.75,3.75,0,0,1-2.12,2.5l-.22.08h0a2.3,2.3,0,0,1-.63.1l-2,0-6.33.1-5.14-10.56a2.87,2.87,0,0,1-.2-2.06c0-.06.05-.11.07-.16l8.46-13.85,4.11-6.75-.68-1.19h0l0,0,.05,0,.07,0a1.7,1.7,0,0,1,1.81.59Z" transform="translate(967.71 79.51)"/><path class="cls-12" d="M425.29,202.24l3.48,7.16L433,218l-.2.77,0,.18-.89,3.42-1.67,6.49-.59,2.28v0l-.13.48-.44,1.7a3.75,3.75,0,0,1-2.12,2.5l-.22.08h0a2.3,2.3,0,0,1-.63.1l-2,0-6.33.1h-1.11l-5.3-10.91a2.66,2.66,0,0,1-.13-2.22l8.24-13.49,4.74-7.79a.44.44,0,0,1,.18-.18h0l0,0,.05,0,.07,0C424.72,201.47,425,201.73,425.29,202.24Z" transform="translate(967.71 79.51)"/><path d="M425.56,204l2.64,5.42,4.55,9.36,0,.18-.89,3.42-1.67,6.49-.59,2.28v0l-.13.48-2.56,4.2-.22.08h0a2.3,2.3,0,0,1-.63.1l-2,0-6.33.1h-.55l-5-10.21a2.34,2.34,0,0,1-.11-2l.28-.46,8.55-14,3.64-6C424.77,203.13,425.24,203.31,425.56,204Z" transform="translate(967.71 79.51)"/><path class="cls-8" d="M425.45,204l2.63,5.4,1.74,3.6,2.89,5.93-.89,3.42-1.67,6.49-.59,2.28v0l-2.91,4.76h0a2.3,2.3,0,0,1-.63.1l-2,0-6.76.11-5-10.24a2.72,2.72,0,0,1-.25-1.1,1.43,1.43,0,0,1,.15-.74l3.63-6,4.64-7.6.61-1,3.59-5.87a.31.31,0,0,1,.34-.19A1,1,0,0,1,425.45,204Z" transform="translate(967.71 79.51)"/><polygon class="cls-9" points="1389.92 305.39 1391.15 307.08 1392.36 306.83 1392.88 303.89 1390.88 302.18 1389.74 303.32 1389.92 305.39"/><polygon class="cls-9" points="1391.15 307.08 1389.83 309.07 1390.64 306.38 1391.15 307.08"/><polygon class="cls-9" points="1390.88 302.18 1391.72 300.38 1390.98 293.76 1392.03 300.54 1391.31 302.55 1390.88 302.18"/><polygon class="cls-9" points="1391.51 297.23 1393.54 297.44 1394.72 295.23 1393.71 289.8 1395.1 295.17 1393.84 298.02 1391.66 298.14 1391.51 297.23"/><polygon class="cls-9" points="1392.88 303.89 1393.45 304.21 1393.89 300.72 1399.6 299.89 1394.37 301.28 1393.96 305.4 1392.76 304.57 1392.88 303.89"/><polygon class="cls-9" points="1394.16 303.41 1395.82 305.47 1395.37 309.41 1395.17 305.48 1393.96 305.4 1394.16 303.41"/><polygon class="cls-9" points="1392.36 306.83 1393.34 309.38 1390.84 312.57 1391.04 315.58 1391.02 315.58 1390.53 312.42 1392.93 309.47 1391.7 306.96 1392.36 306.83"/><polygon class="cls-9" points="1389.92 305.39 1389.31 306.26 1386.94 305.07 1386.05 306.54 1384.58 305.48 1385.98 306.1 1386.85 304.34 1389.2 305.49 1389.82 304.23 1389.92 305.39"/><polygon class="cls-9" points="1388.07 305.64 1387.29 307.71 1387.92 312.71 1387.84 308.02 1389.31 306.26 1388.07 305.64"/><polygon class="cls-9" points="1387.45 309.03 1387.55 310.04 1385.85 309.46 1383.5 310.5 1385.76 308.74 1387.45 309.03"/><polygon class="cls-9" points="1389.74 303.32 1388.62 301.77 1388.26 297.4 1388.98 301.46 1390.35 302.71 1389.74 303.32"/><polygon class="cls-10" points="1397.54 292.51 1400.42 298.44 1399.53 301.87 1383.49 297.65 1388.13 290.05 1397.54 292.51"/><path class="cls-10" d="M430.15,228.85l-.59,2.28-2.92,4.79a2.3,2.3,0,0,1-.63.1l-2,0L416.17,234l-3.91-8.06a2.82,2.82,0,0,1-.26-1.11,1.34,1.34,0,0,1,.14-.71Z" transform="translate(967.71 79.51)"/><rect class="cls-13" width="750" height="497.02" rx="12.27"/><path class="cls-17" d="M598.68,389.88c-31.06,4.9-93.51,19.83-128.93,14.87-60.91-8.52-121.63,7.47-185.52.93-40.77-4.17-73.67-12.83-103.29-21.8s-57.64-18.57-93.39-25.51c-19.4-5.5-60.24-8.83-87.55-8.59.09,37.49.55,75,.77,112.5,10.39,1.17,22.1,1.44,33.42,1.65l17.68.32H750V386.33C694.17,376.51,658,380.52,598.68,389.88Z" transform="translate(967.71 79.51)"/><path class="cls-18" d="M634.76,407.73c-34.79-6.59-70.72,1.21-106,2.15-77.11,1.57-161.28,11-246.93,13.07-68.67,1.64-90.52,9.9-212.89,29.36Q34.62,457.77.78,463.45.89,481.72.89,500L660.94,526.3c27.6,1.1,59.8,4,89.06,1.27V408.87C720.83,409.6,681.46,416.57,634.76,407.73Z" transform="translate(967.71 79.51)"/><path class="cls-19" d="M554.15,437c-108.08,1.22-187.3-1.3-324.24,0-81.94.79-165.08-4.42-229.32-.3.23,29,.39,58,.23,86.94H750V434.58C675.2,435.12,617.82,436.27,554.15,437Z" transform="translate(967.71 79.51)"/><path class="cls-20" d="M355.15,445.65c-56.69,2.31-168.71,10.52-118.53,10.68,154.77.5,223.09-1.09,356.67-5.9,28.65-1,117.71,1.53,144.52-.8,12.17-1.05,13.73-11.76,10.6-13.08-2.86-1.21-56.55-1.34-68.33-1.05C565.86,438.22,433.82,442.44,355.15,445.65Z" transform="translate(967.71 79.51)"/><path class="cls-21" d="M249.2,430.19l97,1c18.66.19,38.37.22,54.53-6.08-2.65,1-16.16-1.77-19.55-2.06q-10.29-.91-20.63-1.45-21.15-1.11-42.39-.68c-13.79.28-27.35,1.66-41.08,2.27C266.36,423.7,256.11,423.51,249.2,430.19Z" transform="translate(967.71 79.51)"/><path class="cls-22" d="M393.1,425s-7.67-14.28-8.93-15.75c-7.9-9.28-18.4-9.4-29.09-7.07-3.09.67-11.28,5.22-14.25,4.59-2.31-.5-5.08-9.81-12.49-9.33s-7.86,9.79-7.86,9.79-4.63-10.83-12-9.84-7.41,8.3-1.87,13.72c0,0-11.79-3.76-23.25,2s-6,13.42-6,13.42Z" transform="translate(967.71 79.51)"/><path class="cls-23" d="M610.4,269.91s-8.46-1.3-10.23-.61-6.26,5.2-6.26,5.2l.84.51,1.63.1-1,1,1.22,1.07,1.24-.58,1.7-.24-2.09,1.47,1.2.75,1.93-1.16.18,1.86.91.05,1.15-2.43,3.25.08,3.5-2.31,4.55.74Z" transform="translate(967.71 79.51)"/><path class="cls-23" d="M663.57,207.62c-7.22,9.75-16.89,37-21.6,40.78a277.92,277.92,0,0,1-31.57,21.51l3,3.67s31.67-9.84,36.8-14.22c12.66-10.8,21.31-22.3,24.37-38.27C676.63,210.4,667.52,202.27,663.57,207.62Z" transform="translate(967.71 79.51)"/><path class="cls-24" d="M663.57,207.62c-7.22,9.75-16.89,37-21.6,40.78a277.92,277.92,0,0,1-31.57,21.51l3,3.67s31.67-9.84,36.8-14.22c12.66-10.8,21.31-22.3,24.37-38.27C676.63,210.4,667.52,202.27,663.57,207.62Z" transform="translate(967.71 79.51)"/><path class="cls-25" d="M658.12,252c-3.48-4.1-7.11-8-11-11.75,5-9.85,11.49-25.53,16.66-32.41,4-5.31,13.05,2.9,10.92,13.57C672.27,233.68,666.49,243.3,658.12,252Z" transform="translate(967.71 79.51)"/><path class="cls-26" d="M658.12,252c-3.48-4.1-7.11-8-11-11.75,5-9.85,11.49-25.53,16.66-32.41,4-5.31,13.05,2.9,10.92,13.57C672.27,233.68,666.49,243.3,658.12,252Z" transform="translate(967.71 79.51)"/><polygon class="cls-27" points="1682.9 476.73 1700.17 494.11 1689.92 506.93 1688.47 493.67 1678.67 486.18 1682.9 476.73"/><path class="cls-27" d="M660.91,304.4c1.11,6.07-1.31,55.78-1.2,60.2s57.68,49.45,57.68,49.45l7-7.16-42.22-55.61s14.4-49,8.63-59.46-13-12.91-13-12.91Z" transform="translate(967.71 79.51)"/><polygon class="cls-28" points="1613.71 502.78 1609.5 522.06 1594.08 522.55 1603.33 515.02 1604.81 501.51 1613.71 502.78"/><path class="cls-28" d="M690,283.32a27.68,27.68,0,0,1,2.55,14.13c-1.94,17.6-31.42,74.38-31.42,74.38s-3,18-7.24,33.59c-3.72,13.51-7.67,26.68-7.67,26.68l-10.84-2.64s4.44-58.62,4.78-64.94c.63-11.8,12.92-66.88,18.58-72.7S690,283.32,690,283.32Z" transform="translate(967.71 79.51)"/><path class="cls-23" d="M639.27,183c.54,3.58.73,6.91,1.48,9.22s-1,6.07-1.85,7.72,2.85,2.24,2.85,2.24a32.68,32.68,0,0,1,3.6,7.07c.79,2.05,4.39.65,6.67.46s3.79-2.66,7.14-5.75,5.43-9.12,5.43-9.12l-.28-13.59-13.63-4.89Z" transform="translate(967.71 79.51)"/><path class="cls-29" d="M639.6,185.44s-6.39-5,.11-10c4.9-3.81,16.28-5.05,21.18-3.42s6,5,5.35,5.53c0,0,3,1.57,4.27,7.9s-6.68,17.17-6.9,20.51l-5.08-7.12s3.9-3.19,3.27-7-5.55-5-6.07-1.39a17.08,17.08,0,0,0-.11,5.44s-2.8-1.08-3.19-3.46c-.94-5.71.29-10.74-3.78-10.2C645.69,182.64,643.4,185.58,639.6,185.44Z" transform="translate(967.71 79.51)"/><path class="cls-23" d="M659.29,197.44s6.71,9.38,7.85,10.78,7.39,3.52,7.39,3.52,10.21,9.15.24,13.57-21.56,1.62-21.56,1.62-.43-9.44,0-12-2.29-8.29-2.29-8.29Z" transform="translate(967.71 79.51)"/><path class="cls-25" d="M677.19,213.23c-1.52-1.49-7.16-7.09-7.16-7.09l-4.09-1.22-12.21,15.39-.82-6-3.22,7.73s1.42,23.07,3.22,39.23c1.42,12.85,1.34,39.25,1.34,39.25s7.59,7.4,16.78,10,22.35,2.5,25.84-1.37-6-62.58-7.87-73.46A39.05,39.05,0,0,0,677.19,213.23Z" transform="translate(967.71 79.51)"/><path class="cls-24" d="M657.57,273.13c-1.18,2.31-2.43,4.56-3.73,6.78-.07-6-.3-12.93-.93-18.62-.81-7.26-1.76-16.05-2.57-23.54a108.53,108.53,0,0,0,18.48-16.25c1.21,5.52,7.08,3.73,7.75,9.35C678.05,246.3,662.49,261.61,657.57,273.13Z" transform="translate(967.71 79.51)"/><path class="cls-30" d="M563.62,382.28a1.34,1.34,0,0,1-.35,0A1.88,1.88,0,0,1,561.9,380l18.71-97.24a6.22,6.22,0,0,1,4.78-5.1l20.39-5.32a1.74,1.74,0,0,1,2.11,1.37,1.89,1.89,0,0,1-1.28,2.27l-20.47,5.34a2.64,2.64,0,0,0-2.09,2.17l-18.72,97.27A1.78,1.78,0,0,1,563.62,382.28Z" transform="translate(967.71 79.51)"/><g class="cls-31"><path class="cls-32" d="M563.62,382.28a1.34,1.34,0,0,1-.35,0A1.88,1.88,0,0,1,561.9,380l18.71-97.24a6.22,6.22,0,0,1,4.78-5.1l20.39-5.32a1.74,1.74,0,0,1,2.11,1.37,1.89,1.89,0,0,1-1.28,2.27l-20.47,5.34a2.64,2.64,0,0,0-2.09,2.17l-18.72,97.27A1.78,1.78,0,0,1,563.62,382.28Z" transform="translate(967.71 79.51)"/></g><path class="cls-30" d="M609.81,276.89l-15.18,2.53a1.07,1.07,0,0,1-1.21-.95L593,275.8a1.14,1.14,0,0,1,.88-1.3L609.09,272a1.06,1.06,0,0,1,1.21.94l.39,2.68A1.13,1.13,0,0,1,609.81,276.89Z" transform="translate(967.71 79.51)"/><path class="cls-23" d="M595.58,274.17s4.73-4.22,6.54-4.79,10.17,1.26,10.17,1.26A274.4,274.4,0,0,0,645,251.19c4.92-3.45,16.09-30.06,23.84-39.34,4.25-5.08,12.88,3.61,10.24,14.16-4,15.74-14.59,25.78-27.83,35.76-5.37,4-19.48,8.61-26.65,10.32l-13.45,3.21-3.62,2.08-3.24-.29L603,279.45l-.9-.12-.07-1.86-2,1-1.17-.84,2.18-1.33-1.72.13-1.26.51-1.16-1.15,1.09-.9-1.62-.2Z" transform="translate(967.71 79.51)"/><path class="cls-25" d="M664.36,252.34c-1-1.19-2.1-2.37-3.23-3.5-2.86-2.89-5.84-5.68-8.93-8.32,5.25-9.53,11.66-22.69,16.65-28.67,4.25-5.08,12.88,3.61,10.24,14.16A57.49,57.49,0,0,1,664.36,252.34Z" transform="translate(967.71 79.51)"/><path class="cls-33" d="M326.37,374.44c4.08-6.83,9-10.62,8.83-12.68-.33-3.85,1.43-53.37,1-58.33L365,311.67s-12.42,46.87-13,52.47a22.88,22.88,0,0,1-2.13,6.57c-3.48,6.2-33.6,39.1-35.06,43.52s3.82,12,3.82,12-7.82-1.19-10-5-2.84-9.47-2.84-9.47C312.33,407,320.13,384.87,326.37,374.44Z" transform="translate(967.71 79.51)"/><path class="cls-34" d="M307,410.24a50.52,50.52,0,0,0,4.43,11.18c2.72,4.54,6.78,3.77,6.78,3.77s2.09,5.28,5.07,7.58,1.77,4.47,1.77,4.47-6.14.71-12.82-5.71-11.06-15.72-11.06-15.72Z" transform="translate(967.71 79.51)"/><path class="cls-33" d="M373.24,395.53c-.28-12-1.62-19.82-3.56-24.45-8.28-19.75-21.32-61.82-21.32-61.82l26.2-4.85s9.69,63.39,10.43,65.68c3.14,9.76,1.76,57.42,4,61.55s11.26,5.17,11.26,5.17-6.17,5.26-10.43,4.38S381,437,381,437C382,428.64,373.52,407.94,373.24,395.53Z" transform="translate(967.71 79.51)"/><path class="cls-35" d="M380.77,435a47.48,47.48,0,0,0,11.11,4.14c5.14,1,7.33-2.69,7.33-2.69s8.35,1.93,11.92,3.16c4.19,1.45-6,5.12-15.15,5.94s-14.22-.25-14.22-.25Z" transform="translate(967.71 79.51)"/><path class="cls-36" d="M335,276.08c-2.73,3.09-.34,10.41,10.23,11.05l12.16-19S342.18,267.92,335,276.08Z" transform="translate(967.71 79.51)"/><path class="cls-37" d="M367.14,318.31c-.46.21,5.68,32.43,5.21,32.56-15.44,4.39-37.54-1.19-39-1.1,2.13-8.85,3.94-45.14,1.9-53.83-3.56-15.1,4.16-19.93,11.23-27.48a19.55,19.55,0,0,1,16.54-5.9l3.23,22.08a41.74,41.74,0,0,1,4.35,16.26c.08,3.12-.14,9.27-.55,16Z" transform="translate(967.71 79.51)"/><path class="cls-38" d="M362.85,169.8s8.63-.19,10.22,9.62-1.33,17.5,2.15,31.43-11.71,27.5-23.88,16-19-13.19-19-13.19l16.45-23.89Z" transform="translate(967.71 79.51)"/><path class="cls-33" d="M365.86,213.68c-1.05-1.7-4.35-2.39-2.67-6.61l-9.1-2a35.59,35.59,0,0,1-4.27,8.62c-2.73,3.77,8.31,28.55,15,29.68s9-7.56,9-7.56l-4.74-17.06Z" transform="translate(967.71 79.51)"/><path class="cls-33" d="M365.71,203.19c-2.24,1.87-4.4,8.57-4.32,12.17l-14.31,3a170.39,170.39,0,0,0,4.61-16.75c1.42-7.21-.06-10.25-.06-10.25Z" transform="translate(967.71 79.51)"/><path class="cls-33" d="M370.58,176.6a14.25,14.25,0,0,1,2.28,6.67c.13,1.45-.49,2.9.38,4.19s3.84,3.45,4.15,4.21-1.76,2.34-2,2.88-1,4.9-1.35,7.12-5.18,2.32-8.36,1.52-7.85-3.58-9.66-4.68-4.42-7.1-4.42-7.1l-2.35-11.82a9.47,9.47,0,0,1,9-6.53C365.43,173,368.71,174.12,370.58,176.6Z" transform="translate(967.71 79.51)"/><path class="cls-38" d="M368.74,174.56s-2.92,14.9-10,18c0,0,1.63,11.49-1.1,18.77-2.1,5.6-7.82,2.37-7.82,2.37a20,20,0,0,0-4.27,20.46s-8.45.76-12.83-8.84c-5.1-11.19,1.65-17.77,3.9-25.18s.74-18.73,9.42-26.3C360.53,161.2,368.74,174.56,368.74,174.56Z" transform="translate(967.71 79.51)"/><path class="cls-39" d="M346.9,343.16c-3.57-7-8.68-41.39-8.28-48.23.64-11.22,6.66-17.74,15.14-20.48,6.7-2.17,16.8,2,16.8,2l3,17s6.82,36.12,9.61,53.7C382.48,347.54,358.89,350.92,346.9,343.16Z" transform="translate(967.71 79.51)"/><path class="cls-36" d="M349.82,213.68a26.32,26.32,0,0,1,8.55,6.92c4,4.85,9.51,10.86,11,10.23s-.94-15-3.53-17.15l4,2.44s3.15,11.7,5.16,15.5,5.05,9,4.75,14-3.52,11.92-3.21,16.19-.71,19.19-.71,19.19a49.08,49.08,0,0,1-18.54,2.18c-10.23-.81-18.94-9.15-22.3-7.11a148.27,148.27,0,0,0,8.09-15.28c3.06-7-1.07-15-2.59-23.49S337,224,339.94,219.7,349.82,213.68,349.82,213.68Z" transform="translate(967.71 79.51)"/><path class="cls-40" d="M375.84,281a49.08,49.08,0,0,1-18.54,2.18c-.47,0-.93-.11-1.39-.17q-7.28-9-15-17.64c.77-1.52,1.51-3.08,2.16-4.58,3.06-7-1.07-15-2.59-23.49S337,224,339.94,219.7c1.58-2.33,4.37-3.9,6.58-4.86,2.7,8.28,5.88,16.36,10.69,23.46,5.52,8.16,11.74,15.32,19.49,20.91a12,12,0,0,0-.15,2.61C376.85,266.09,375.84,281,375.84,281Z" transform="translate(967.71 79.51)"/><path class="cls-41" d="M367.83,173.24c2.05,2.6,1.92,6.58.21,9.42a12.77,12.77,0,0,1-7.89,5.43" transform="translate(967.71 79.51)"/><polygon class="cls-42" points="1353.97 307.98 1336.35 306.69 1353.57 295.55 1353.97 307.98"/><polygon class="cls-43" points="1391.38 365.13 1337.76 361.42 1336.35 306.69 1389.85 310.4 1391.38 365.13"/><polygon class="cls-40" points="1391.38 365.13 1337.76 361.42 1336.35 306.69 1389.85 310.4 1391.38 365.13"/><path class="cls-13" d="M392.38,240.29a5.2,5.2,0,0,0-.67.11,4.15,4.15,0,0,0-2.58,2c-.6,1.08-1.23,2.15-1.85,3.22l0,.05-2.37-1.42a.59.59,0,0,0,.05.13l3.75,7.06a.18.18,0,0,0,.19.12l5.85.21,1.83.08,0,0-2.09-1.53q.29-.47.54-.93c.94-1.61,1.86-3.22,2.8-4.82a10.39,10.39,0,0,1,1.88-2.39,6,6,0,0,1,2.27-1.31l.07,0s0,0,0,0c-.68,0-1.34-.05-2-.09l-6.35-.32-.2,0Z" transform="translate(967.71 79.51)"/><path class="cls-13" d="M414.44,260.29a2.74,2.74,0,0,0-.11-.57c-.16-.44-.35-.86-.54-1.29-.52-1.16-1.05-2.32-1.58-3.48,0,0,0-.08-.06-.14l2.37-1.76h-.19l-7.46-.4a1,1,0,0,0-.45,0c-.12.07-.17.25-.25.39l-4,7-.06.09,2.34-1.17.08.12c.89,1.68,1.79,3.35,2.69,5a.23.23,0,0,0,.23.15c.57,0,1.15,0,1.72,0a6.6,6.6,0,0,0,2.53-.42,4.66,4.66,0,0,0,2.58-2.61,5.66,5.66,0,0,0,.15-.59C414.43,260.53,414.43,260.41,414.44,260.29Z" transform="translate(967.71 79.51)"/><path class="cls-13" d="M379.92,259.17c0,.2,0,.4.08.59a3.28,3.28,0,0,0,1.17,1.87,6.77,6.77,0,0,0,2.48,1.22,11.65,11.65,0,0,0,3.17.42.2.2,0,0,0,.2-.11l3.77-6.55,0-.09-7.18-5-.17.31q-1.65,3-3.31,6.08a2.31,2.31,0,0,0-.2.68l0,.14Z" transform="translate(967.71 79.51)"/><path class="cls-13" d="M392.33,261.47c-.07.72-.13,1.41-.19,2.1,0,.17,0,.33-.05.5s0,.1-.1.09h-.12l-5.68-.25a12.54,12.54,0,0,1-2.44-.31,6.2,6.2,0,0,1-3.12-1.77.16.16,0,0,0-.08-.05c.18.39.36.78.55,1.17q1.78,3.85,3.58,7.7a3.9,3.9,0,0,0,2.81,2.21,5,5,0,0,0,.78.07l3.34.14c.12,0,.16,0,.16.17l0,2.11c0,.2,0,.41,0,.64l.4-.69,3.71-6.36a.22.22,0,0,0,0-.16c-1.16-2.42-2.33-4.83-3.5-7.25Z" transform="translate(967.71 79.51)"/><path class="cls-13" d="M413.69,263.18c-.34.26-.68.54-1,.78a5.54,5.54,0,0,1-2.29.82,8,8,0,0,1-1.76,0l-3.18-.12-3.81-.14-2.77-.1h-.11c-.12,3-.24,6-.37,8.95l.19,0,4.81.21c.55,0,1.09.05,1.64,0a5.2,5.2,0,0,0,2.69-.73,2.7,2.7,0,0,0,.93-.94l5-8.72Z" transform="translate(967.71 79.51)"/><path class="cls-13" d="M401.39,252.84,409,248.6l-.53-.94-3.09-5.41a1.93,1.93,0,0,0-.63-.61,2.74,2.74,0,0,0-2.85-.21,6.15,6.15,0,0,0-2,1.44,12.66,12.66,0,0,0-2.15,3,.18.18,0,0,0,0,.21c1.2,2.22,2.39,4.45,3.58,6.67Z" transform="translate(967.71 79.51)"/><polygon class="cls-43" points="1391.38 365.13 1407.51 347.72 1406.08 297.79 1389.85 310.4 1391.38 365.13"/><polygon class="cls-44" points="1389.9 311.39 1336.41 307.68 1336.35 306.69 1389.85 310.4 1389.9 311.39"/><polygon class="cls-45" points="1406.03 297.75 1389.85 310.4 1389.91 311.48 1406.29 298.62 1406.03 297.75"/><path class="cls-40" d="M370.94,257.59c.29.41.46.63.46.63,3.39,2.09,34.54.12,34.54.12a.34.34,0,0,1,0,.1,15.17,15.17,0,0,0,3.16-1.2c.71-.37,2.33-.51,3-1.34a16.87,16.87,0,0,1,3.38-2.91c1-.5,2.29-1.27,2.83-.78s.23,1-.42,1.51a9.41,9.41,0,0,0-1.85,2.9c-.06.36,2.15.29,3.89-.26s3.76-2.15,4.75-2.47,1.17,1.24,1.17,1.24.89.82.85,1.52a9.29,9.29,0,0,1-.34,2.15c-.22.62-.91.88-.95,1.58a2.09,2.09,0,0,1-1.26,1.88c-.9.41-7.14,2.41-8.31,2.65-.87.19-5.35-.27-9-.29a15.3,15.3,0,0,0,1.24,2.68c-9.72,1.91-25.7,4.49-36.25,4.07C371.54,266.78,371.2,262.19,370.94,257.59Z" transform="translate(967.71 79.51)"/><path class="cls-33" d="M401.8,257.15c1.48.38,4.49-.4,6-1.12.73-.34,2.36-.38,3.09-1.16a16.1,16.1,0,0,1,3.54-2.7c1-.44,2.36-1.14,2.87-.62s.17,1-.51,1.49a9.05,9.05,0,0,0-2,2.78c-.09.35,2.12.42,3.89,0s3.88-1.92,4.89-2.18,1.09,1.31,1.09,1.31.84.87.76,1.57a8.5,8.5,0,0,1-.46,2.12c-.25.61-.95.82-1,1.52A2.11,2.11,0,0,1,422.6,262c-.92.34-7.26,2-8.44,2.14s-8.77-1.2-12.14-.85c0,0-.52-.05-.6-2.14A15.41,15.41,0,0,1,401.8,257.15Z" transform="translate(967.71 79.51)"/><path class="cls-36" d="M348.08,215.35c-3.58-3.07-8.56-1.57-9.32,6.52s14.08,33.87,23.23,43.46c.86.9,1.41,1.46,4.25,2,10,2,29.05.14,40.08-1.35a16.52,16.52,0,0,1-1.69-9.08s-31.2.09-34.47-2.2a97.63,97.63,0,0,1-9.73-20.22C356.68,224,351.89,218.61,348.08,215.35Z" transform="translate(967.71 79.51)"/><polygon class="cls-46" points="1414.27 516.94 1449.15 518.91 1449.86 505.58 1414.97 503.61 1414.27 516.94"/><path class="cls-47" d="M456.3,262.38,458.35,243s4.65-23.25,27.31-25c32.62-2.5,38.07-2.19,70.24,4,22.34,4.28,24.52,27.92,24.52,27.92v19.49C579.86,274.59,456.31,267.62,456.3,262.38Z" transform="translate(967.71 79.51)"/><path class="cls-48" d="M578.31,241.54a35.69,35.69,0,0,1,2.11,8.36v19.49c-.28,2.56-30.33,2.17-60.79.49L519,262s52.36,4.26,57.24,1.82,2.09-22.27,2.09-22.27Z" transform="translate(967.71 79.51)"/><path class="cls-48" d="M456.3,262.38,458.35,243a35.51,35.51,0,0,1,3-8c0,.14-4.85,19.41-.26,22.37s57.1,4.63,57.1,4.63l3,.22-4.52,7.53C486.2,268,456.31,265,456.3,262.38Z" transform="translate(967.71 79.51)"/><polygon class="cls-46" points="1503.74 521.99 1538.63 523.96 1539.33 510.63 1504.45 508.66 1503.74 521.99"/><path class="cls-49" d="M452.44,277.41l2.28,141s-1.58,19.21,15.42,22.58c14.43,2.87,63.12,5.62,77.77,4.39,17.25-1.44,17.7-20.71,17.7-20.71l17.08-139.94L517.46,283Z" transform="translate(967.71 79.51)"/><path class="cls-50" d="M452.44,277.41l2.28,141s-1.58,19.21,15.42,22.58c6.54,1.3,20.11,2.58,34.37,3.47,0,0-38.66-3.2-40.09-32.63s-1.26-109.12-1.26-109.12c-1.28-10.8,110.91-9.95,107.27,6.05,0,0-8.18,79.24-12.7,108.33-4.31,27.73-39.71,28-43,27.93,13.78.67,26.78.9,33.21.36,17.25-1.44,17.7-20.71,17.7-20.71l17.08-139.94C537.61,283.52,497.15,281.23,452.44,277.41Z" transform="translate(967.71 79.51)"/><path class="cls-48" d="M537.56,445.71c4.24,0,7.81-.08,10.35-.3,17.25-1.44,17.7-20.71,17.7-20.71l16.94-138.84-4.35-1.23-16.7,8.09s15.49,0,15.58,8.9-12.56,119.85-17.34,130.89C555.68,441.89,551.28,445.39,537.56,445.71Z" transform="translate(967.71 79.51)"/><path class="cls-48" d="M452.45,278.53l2.27,139.91s-1.58,19.21,15.42,22.58c2.55.51,6.17,1,10.48,1.49-13.73-1.85-17.75-5.82-20.81-15.64-3.59-11.51-4.53-123.28-3.5-132.06s16.42-7.1,16.42-7.1L457,277.79h0Z" transform="translate(967.71 79.51)"/><path class="cls-51" d="M518.69,283.55h0a6.31,6.31,0,0,1,5.66,6.81l-1.21,23a6.24,6.24,0,0,1-6.34,6.13h0a6.3,6.3,0,0,1-5.66-6.8l1.21-23.05A6.25,6.25,0,0,1,518.69,283.55Z" transform="translate(967.71 79.51)"/><path class="cls-52" d="M562.61,446.34,564,416.87s-.05-3.42,5.32-3.47,12.32.9,12,4.34-5.11,29-5.45,29.95-.63,3.18-3.34,3.23-9-.46-9.64-1.2S562.61,446.34,562.61,446.34Z" transform="translate(967.71 79.51)"/><path class="cls-53" d="M562.61,446.34,564,416.87s-.05-3.42,5.32-3.47,12.32.9,12,4.34c0,.46-.16,1.29-.33,2.4-.28-2.82-6-5.37-10.73-4.33s-4.09,13.74-4.68,23.26,3,10.22,6.4,9.61,4.86-5.79,4.91-5.95c-.54,2.77-.93,4.7-1,5-.33,1-.63,3.18-3.34,3.23s-9-.46-9.64-1.2S562.61,446.34,562.61,446.34Z" transform="translate(967.71 79.51)"/><path class="cls-54" d="M530.24,220.17c10.71,2.21,5,5,.77,5s-26.82-2.82-41.73,3.88S468.51,244.12,466,242.87c-7.79-3.82.61-13.85,10.31-19.17C488,217.28,518.22,217.68,530.24,220.17Z" transform="translate(967.71 79.51)"/><path class="cls-54" d="M553.36,227.7s12.14,6.92,14.66,15.7,2.73,11.92,5.77,12.79,5.91-4.19.87-16.63S551.42,223.67,553.36,227.7Z" transform="translate(967.71 79.51)"/><path class="cls-55" d="M462,254.6c11.2-53,108.1-47.49,113.67,6.42a2.31,2.31,0,0,1-.57,1.82,2,2,0,0,1-1.65.72l-109.5-6.18a2,2,0,0,1-1.57-.9A2.35,2.35,0,0,1,462,254.6Z" transform="translate(967.71 79.51)"/><path class="cls-56" d="M464,255.1c10.66-50.45,104.19-45.18,109.5,6.18Z" transform="translate(967.71 79.51)"/><path class="cls-57" d="M522.22,220.12c24.86,1.87,48.69,16,51.3,41.16l-45.28-2.56s28,.67,30.6-4.36S558.58,227.33,522.22,220.12Z" transform="translate(967.71 79.51)"/><path class="cls-57" d="M464,255.1c5.28-25,30.86-36.28,56-35.12-37,3.06-42.13,24.64-40.08,29.93s29.89,7.77,30,7.78Z" transform="translate(967.71 79.51)"/><path class="cls-54" d="M509.38,219.52l-.22,3.45s-.24,1,2.34,1.28c5.38.52,12.65.94,18,1,2.6,0,2.46-1,2.46-1l.15-3.46C518.86,218.82,522.8,219,509.38,219.52Z" transform="translate(967.71 79.51)"/><path class="cls-55" d="M510.1,220.92c-.08.46-.21,1.86.53,2.27s3.24.44,5.31.63,13.65.77,13.86.47a1.06,1.06,0,0,0-.89-1.48c-1.06-.22-12.38-.3-14.59-.91S509.81,220.2,510.1,220.92Z" transform="translate(967.71 79.51)"/><path class="cls-55" d="M518.69,283.55h0a4.33,4.33,0,0,1,3.49,2.26c-1.69-.46-4.35-1-6.3-1.35a4.2,4.2,0,0,1,2.81-.91ZM522.24,299l-.85,16.06a4.52,4.52,0,0,1-4.59,4.44h0a4.57,4.57,0,0,1-4.11-4.93l.87-16.46c.31-3.19,2.42-6.26,4.51-6.19C521,292,522.07,293.42,522.24,299Z" transform="translate(967.71 79.51)"/><path class="cls-51" d="M482.35,281.84h0a6.09,6.09,0,0,1,6.77,5.5L492,310.19a6.46,6.46,0,0,1-5.14,7.32h0a6.09,6.09,0,0,1-6.77-5.5l-2.91-22.86A6.46,6.46,0,0,1,482.35,281.84Z" transform="translate(967.71 79.51)"/><path class="cls-55" d="M482.35,281.84h0a4.35,4.35,0,0,1,4.77,3.29,4.9,4.9,0,0,0-1.8-.84c-2.4-.54-5.61.56-6.49.68a4.47,4.47,0,0,1,3.52-3.13Zm6.17,13.87,2.1,16.49a4.69,4.69,0,0,1-3.73,5.31h0a4.43,4.43,0,0,1-4.91-4l-2-16h0l-.18-1.36c-.12-1.75,0-4.63,2.31-5.26C485.39,290,487.46,291.36,488.52,295.71Z" transform="translate(967.71 79.51)"/><path class="cls-51" d="M553.67,285.86h0a6,6,0,0,0-7.31,4.71L541.07,313a6.51,6.51,0,0,0,4.34,7.85h0a6,6,0,0,0,7.31-4.71L558,293.71A6.52,6.52,0,0,0,553.67,285.86Z" transform="translate(967.71 79.51)"/><path class="cls-55" d="M553.67,285.86h0a4.34,4.34,0,0,0-5.14,2.88,5,5,0,0,1,2.1-.77c2.29-.25,5.15,1,6.2,1.36a4.53,4.53,0,0,0-3.16-3.47ZM545.85,300l-3.59,15.16a4.73,4.73,0,0,0,3.15,5.69h0a4.38,4.38,0,0,0,5.3-3.41L555.06,299c.08-1.6-.24-3.42-1.9-4.09-3.2-1.29-5.41-.14-6.91,4.07C546.1,299.38,546,299.7,545.85,300Z" transform="translate(967.71 79.51)"/><path class="cls-47" d="M452.88,286.59s-1.39-.18-2-4.13S449,267,449,267s-1.11-5.49,15.14-5.78c28.91-.51,80,2.37,108.67,6.14,16.13,2.11,14.45,7.44,14.45,7.44s-2.47,11.32-3.51,15.18-2.44,3.89-2.44,3.89Z" transform="translate(967.71 79.51)"/><path class="cls-50" d="M518.53,262.66c20,1.12,39.91,2.78,54.25,4.67,16.13,2.11,14.45,7.44,14.45,7.44s-2.47,11.32-3.51,15.18-2.44,3.89-2.44,3.89l-23-1.3s13.14.22,17.86-4.24,3-17-16.12-20S518.53,262.66,518.53,262.66Z" transform="translate(967.71 79.51)"/><path class="cls-55" d="M482,265.2c-12.67,1.4-13.61,5-12.42,7.24s95.19,7.58,96.61,5.45.86-5.78-11.59-8.59C533.58,264.55,503.37,262.85,482,265.2Z" transform="translate(967.71 79.51)"/><path class="cls-58" d="M568.92,436.85s1.06-16.63,1.1-17.33,2.18-2.49,5.41-1.7,3,2.37,2.7,5.47-3.47,21.52-5.09,22.13S569,445.19,568.92,436.85Z" transform="translate(967.71 79.51)"/><path class="cls-52" d="M454.62,440.25l1.73-29.45s.42-3.4-4.91-4.05-12.34-.5-12.39,3,2.05,29.36,2.28,30.38.29,3.23,3,3.58,9,.56,9.71-.1S454.62,440.25,454.62,440.25Z" transform="translate(967.71 79.51)"/><path class="cls-53" d="M454.62,440.25l1.73-29.45s.42-3.4-4.91-4.05-12.34-.5-12.39,3c0,.45,0,1.3.09,2.42.57-2.78,6.54-4.66,11.12-3.09s2.62,14.11,2.21,23.64-4.06,9.82-7.37,8.83-4.23-6.3-4.26-6.46c.24,2.81.43,4.77.49,5,.22,1,.29,3.23,3,3.58s9,.56,9.71-.1S454.62,440.25,454.62,440.25Z" transform="translate(967.71 79.51)"/><path class="cls-58" d="M449.34,430.1s.69-16.65.72-17.35-1.9-2.72-5.19-2.3-3.19,2-3.26,5.14,1.19,21.78,2.73,22.57S448.44,438.39,449.34,430.1Z" transform="translate(967.71 79.51)"/><path class="cls-50" d="M477.66,390.47l68.08,3.84a3.34,3.34,0,0,1,3,3.6h0a3.31,3.31,0,0,1-3.36,3.24l-68.08-3.84a3.34,3.34,0,0,1-3-3.6h0A3.3,3.3,0,0,1,477.66,390.47Z" transform="translate(967.71 79.51)"/><path class="cls-55" d="M477.72,390.47l68,3.84a1.67,1.67,0,0,1,1.5,1.8h0a1.66,1.66,0,0,1-1.68,1.62l-68-3.84a1.67,1.67,0,0,1-1.5-1.8h0A1.66,1.66,0,0,1,477.72,390.47Z" transform="translate(967.71 79.51)"/><path class="cls-50" d="M476.89,405.21,545,409.05a3.34,3.34,0,0,1,3,3.6h0a3.31,3.31,0,0,1-3.36,3.24l-68.07-3.84a3.34,3.34,0,0,1-3-3.6h0A3.31,3.31,0,0,1,476.89,405.21Z" transform="translate(967.71 79.51)"/><path class="cls-55" d="M477,405.21l68,3.84a1.65,1.65,0,0,1,1.49,1.8h0a1.65,1.65,0,0,1-1.67,1.62l-68-3.84a1.66,1.66,0,0,1-1.5-1.8h0A1.65,1.65,0,0,1,477,405.21Z" transform="translate(967.71 79.51)"/><path class="cls-50" d="M476.11,420l68.08,3.84a3.34,3.34,0,0,1,3,3.6h0a3.3,3.3,0,0,1-3.35,3.24l-68.08-3.84a3.34,3.34,0,0,1-3-3.6h0A3.31,3.31,0,0,1,476.11,420Z" transform="translate(967.71 79.51)"/><path class="cls-55" d="M476.17,420l68,3.83a1.67,1.67,0,0,1,1.5,1.8h0a1.66,1.66,0,0,1-1.68,1.63l-68-3.84a1.67,1.67,0,0,1-1.5-1.8h0A1.66,1.66,0,0,1,476.17,420Z" transform="translate(967.71 79.51)"/><path class="cls-59" d="M525.73,339.6l3.42-8.47-1.91.78s-1.92-4.35-2.85-6.11a9.82,9.82,0,0,0-2.84-3.05l-11.12-.69s3.06,1.14,5.28,6.82,2.87,6.84,2.87,6.84l-2.19,1.68Z" transform="translate(967.71 79.51)"/><path class="cls-59" d="M501.82,329.62l7.54,5.77,4.94-7.69s-.44-3-4.14-5.23S503,327.71,501.82,329.62Z" transform="translate(967.71 79.51)"/><path class="cls-59" d="M504,336.54l-8.49,1.23,1.59,1.36s-2.48,4-3.4,5.8a11.18,11.18,0,0,0-1,4.21l5.14,10.62s-.65-3.41,2.74-8.41,4-6.19,4-6.19l2.45,1.15Z" transform="translate(967.71 79.51)"/><path class="cls-59" d="M508.29,363.79l.74-10-8.64-.57s-2.15,2-2.05,6.54S506.17,363.7,508.29,363.79Z" transform="translate(967.71 79.51)"/><path class="cls-59" d="M512.76,360l5.59,7,.18-2.19s4.48,0,6.36-.13a9.34,9.34,0,0,0,3.81-1.44l5.45-10.48s-2.3,2.46-8,2.17a63.67,63.67,0,0,0-7-.16l-.45-2.84Z" transform="translate(967.71 79.51)"/><path class="cls-59" d="M531.6,341.12,523.47,346l4.26,8.09s2.69.86,6.2-1.76S532.68,343.08,531.6,341.12Z" transform="translate(967.71 79.51)"/><path class="cls-59" d="M477.06,382.34l.64-12.2,8.39.47-.11,2.06-6.09-.34-.15,2.71,5.67.32-.11,2.06-5.67-.32-.17,3.31,6.31.36-.1,2.06-8.61-.49Zm10.45-2.67.13-2.34,4.27.24-.12,2.34-4.28-.24Zm6.93,3.65-2-12.35,2.35.13,1.25,8.48,2.51-8.27,2.72.16,1.53,8.63,2.17-8.42,2.31.13-3.37,12.05-2.45-.14-1.76-9.25-2.73,9-2.51-.14Zm22.71,1.28-3.9-12.46-2.42-.13-5,11.95,2.42.14,1.09-2.72,4.54.25.84,2.83,2.47.14Zm-3.94-5.07-3.1-.18,1.76-4.43,1.34,4.61Zm4.77,1.15,2.24-.11a3,3,0,0,0,.72,1.82,2.36,2.36,0,0,0,1.62.66,2.45,2.45,0,0,0,1.69-.41,1.57,1.57,0,0,0,.62-1.15,1.18,1.18,0,0,0-.2-.75,1.83,1.83,0,0,0-.79-.57c-.26-.12-.86-.33-1.79-.64a6,6,0,0,1-2.51-1.36,3.42,3.42,0,0,1-.33-4.24,3.15,3.15,0,0,1,1.47-1.16,5.26,5.26,0,0,1,2.25-.3,4.51,4.51,0,0,1,3.15,1.2,3.77,3.77,0,0,1,1,2.78l-2.3-.05a2.18,2.18,0,0,0-.55-1.39,2.23,2.23,0,0,0-1.42-.5,2.5,2.5,0,0,0-1.57.36.93.93,0,0,0-.4.74,1,1,0,0,0,.3.76,5.83,5.83,0,0,0,2.06.94,10.77,10.77,0,0,1,2.41,1,3.24,3.24,0,0,1,1.18,1.31,3.81,3.81,0,0,1,.35,2,3.73,3.73,0,0,1-.64,1.93,3.32,3.32,0,0,1-1.6,1.28,6,6,0,0,1-2.49.3,4.67,4.67,0,0,1-3.24-1.25,4.77,4.77,0,0,1-1.21-3.19Zm13.49,4.73.53-10.14-3.35-.19.11-2.06,9,.51-.11,2.06-3.34-.19-.54,10.14-2.29-.13Zm7.12.4.64-12.2,8.39.47-.11,2.07-6.09-.35-.15,2.71,5.67.32-.11,2.06-5.67-.32-.17,3.31,6.31.36-.11,2.06Z" transform="translate(967.71 79.51)"/><polygon class="cls-52" points="1436.77 317.27 1517.89 256.38 1552.49 310.01 1513.58 339.23 1448.57 335.56 1436.77 317.27"/><polygon class="cls-60" points="1441.51 318.08 1516.94 261.45 1547.75 309.2 1508.16 338.92 1452.95 335.81 1441.51 318.08"/><path class="cls-61" d="M530.1,196.3,549.23,182,580,229.7l-39.59,29.71L519,258.2c-.6-19.2,0-49.42,9.15-59.65Z" transform="translate(967.71 79.51)"/><polygon class="cls-62" points="1452.23 335.77 1440.72 317.93 1516.62 260.95 1517.27 261.96 1442.3 318.23 1453.67 335.85 1452.23 335.77"/><path class="cls-63" d="M542.32,258l-7.15-.42A14.33,14.33,0,0,0,531.5,255c-1.72-.68-8.41-3.93-9.88-4.21s-18.79,1.88-18.79,1.88l20.29-5,11.19,5.39,3.28-.89s-1.11-1.72-.37-2.28,8.5-10.72,8.5-10.72l-4.16-11.85,5.53,14-3.71,7.9-.17,2.3,9.37-3.68,1.8,1.08Z" transform="translate(967.71 79.51)"/><path class="cls-52" d="M523.15,202.26l1.35,8.36s-4.23,6.53-5.71,7.64-12.72,8.17-12.72,8.17l-1.21,20,3.23-16.61s6.55-2.36,7.91-3.38,4.83-6.18,6.19-7.2,6.72-9.78,6.72-9.78,6.7-1.28,7.83-.95,16.34-.84,16.34-.84l-.89-16.47-2.61,14.17s-8.9-1-11.78-.61-7.87.59-7.87.59l-1.83-6.82Z" transform="translate(967.71 79.51)"/><path class="cls-63" d="M484.14,253.53l5.37-6.4s-2-5.61-1.48-6.57,7.32-11.41,7.32-11.41l-5.6,12.19s2.12,4.61,3.23,5.76,3.82,4.22,3.08,4.78-10.46,3.9-10.46,3.9Z" transform="translate(967.71 79.51)"/><path class="cls-64" d="M503.44,236.76s8.54,11.72,15.49,21.44l-17.67-1c-4.79-6.55-8.9-12.35-9.19-13.23-.68-2.07,1.32-5.44,5.12-7.49S503.44,236.76,503.44,236.76Z" transform="translate(967.71 79.51)"/><path class="cls-65" d="M505.16,257.42c-5.75-7.65-10.37-14.31-10.66-14.76l7.06-4.77S509.78,249.26,516,258Z" transform="translate(967.71 79.51)"/><path class="cls-66" d="M503.44,236.76s4.51,6.19,9.64,13.3a9.48,9.48,0,0,1-3.85,7.59l-8-.45c-4.79-6.55-8.9-12.35-9.19-13.23-.68-2.07,1.32-5.44,5.12-7.49S503.44,236.76,503.44,236.76Z" transform="translate(967.71 79.51)"/><path class="cls-67" d="M512.53,253.16a9.16,9.16,0,0,1-3.3,4.49l-4.07-.23c-5.75-7.65-10.37-14.31-10.66-14.76l7.06-4.77S507.1,245.56,512.53,253.16Z" transform="translate(967.71 79.51)"/><path class="cls-64" d="M499.92,242.57c-8.82,7.14-11.47-1.37-2.73-6.09C501.91,233.93,506.82,237,499.92,242.57Z" transform="translate(967.71 79.51)"/><path class="cls-62" d="M499.23,241.92c-6.29,5.09-8.18-1-2-4.35C500.64,235.75,504.15,237.94,499.23,241.92Z" transform="translate(967.71 79.51)"/><path class="cls-68" d="M498.88,241.59c-5,4.06-6.53-.79-1.55-3.47C500,236.66,502.81,238.41,498.88,241.59Z" transform="translate(967.71 79.51)"/><polygon class="cls-69" points="1468.69 324.83 1469.5 324.2 1471.31 326.89 1470.5 327.53 1468.69 324.83"/><path class="cls-59" d="M504.53,245.67s4.54,6.05,8.92,12.22l-2.31-.13C506.28,250.62,502,243.61,504.53,245.67Z" transform="translate(967.71 79.51)"/><path class="cls-68" d="M461.91,232.93a11.82,11.82,0,0,1-1.06-3.18c0-.92,1.84-1.92,3.16-1.59s1.4,3.53,1.4,3.53Z" transform="translate(967.71 79.51)"/><path class="cls-64" d="M465.26,255.17c-2.67-9.25-5.94-20.74-6-21.68-.09-1.57,1.37-3.31,3.76-4s5.32-.05,6.38,2.35c.7,1.58,4.77,14.74,7.43,24Z" transform="translate(967.71 79.51)"/><path class="cls-65" d="M460.46,230.9a6.27,6.27,0,0,1,2.56-1.43,6.45,6.45,0,0,1,1.81-.28c3.13,5.79,7,17.92,9.51,26.49l-7.21-.4c-1.74-6.11-3.69-13-4.52-16.27C461.63,235.22,460.82,232.75,460.46,230.9Z" transform="translate(967.71 79.51)"/><path class="cls-66" d="M465.25,255.17l-.38-1.34c1.61-4.21,5.68-5.78,10.11-4.31.65,2.18,1.29,4.33,1.85,6.3Z" transform="translate(967.71 79.51)"/><path class="cls-67" d="M466.1,251.64a7.19,7.19,0,0,1,6.21-2.65c.73,2.35,1.42,4.62,2,6.69l-7.21-.4C466.8,254.08,466.45,252.86,466.1,251.64Z" transform="translate(967.71 79.51)"/><polygon class="cls-69" points="1432.95 312.44 1431.65 312.93 1432.1 314.31 1431.56 314.52 1431.11 313.13 1429.82 313.62 1429.63 313.03 1430.92 312.55 1430.47 311.16 1431.02 310.96 1431.46 312.34 1432.76 311.85 1432.95 312.44"/><path class="cls-59" d="M468.86,255.37c-2-6.69-5.45-18.76-4.82-19.84s4.38,12.43,6,19.91Z" transform="translate(967.71 79.51)"/><path class="cls-63" d="M469.87,255.43c-2.47-12.66-6.5-33.31-6.63-33.8-.18-.72-.2-3.55,6.37-4.7s23.25-4.92,24.18-4.14,1.56,3.09,2,6.1c.34,2.34,3.68,27,5.19,38.3Z" transform="translate(967.71 79.51)"/><path class="cls-52" d="M469.87,255.43c-2.47-12.66-6.5-33.31-6.63-33.8-.17-.7-.2-3.41,5.88-4.6-.23.05-5.3,1.35-4.76,4.27.36,2,4.32,21,7.28,34.23Z" transform="translate(967.71 79.51)"/><path class="cls-68" d="M472.63,255.59l-7-32.12a2.74,2.74,0,0,1,2.38-3.09c2.82-.65,23.38-4.51,23.38-4.51s1.86.26,2.19,3.37c.3,2.75,4,31.12,4.48,37.78Z" transform="translate(967.71 79.51)"/><path class="cls-62" d="M472.63,255.59l-3.9-17.82h0s2.33,9.27,6.42,15,15.24,1.94,15.39-.25-4-4.9-4.11-9.05,1.35-8.24,2.92-14.52-3.19-10.09-7.38-11.29l9.39-1.77s1.86.26,2.19,3.37c.3,2.75,4,31.12,4.48,37.78Z" transform="translate(967.71 79.51)"/><path class="cls-60" d="M470.57,218.68s7.08-1.39,10.17-2,8.17-1.42,9-1.48,3.51-.4,3.89.86,4.31,33.55,5.62,41l.74,0c0-1.06-.14-2.47-.26-3.47-.26-2-4.74-36.47-5-37.55s0-2.42-1.68-2.71S466.71,218.81,470.57,218.68Z" transform="translate(967.71 79.51)"/><path class="cls-63" d="M482,217.64s-2.61,7.1-3.23,8.21-.48,5.17-.1,5.69,3.31,4.1,3.31,4.1l2.12,2.8-.14,8.61-1-8.58s-2.51-2.31-3.57-3.21-2.08-4.15-2.74-4.95a24.79,24.79,0,0,0-3.63-2.62l-4.86-1.41s5.19,0,6.48-.21a2.37,2.37,0,0,0,2.09-2.11c0-.83,1.79-3.15,1.79-3.15l2.06-2.89Z" transform="translate(967.71 79.51)"/><path class="cls-52" d="M497.05,247.53a26.61,26.61,0,0,0-3-1.23c-1.22-.38-2.33-3.77-2.48-4.24s0-3.25-.75-4.13-4.38-5.58-4.38-5.58L484,226.53s3.74,6,4.75,6.51,2.08.48,2.2,1.29,1.68,5.13,1.68,5.13l1.65,3.89s1.21.29,1-.39-.95-2.76-1-3.21.25-3.58.25-3.58l.93-1.92Z" transform="translate(967.71 79.51)"/><path class="cls-64" d="M471.18,235.13c-.35-2.44.34-3,1.29-3.4s2.84,4.6,4.77,6.68,2.9,2.34,2.6,5.06.53,3.66,2.87,5.84-.32,5.23-3,3.44S474.14,248.46,471.18,235.13Z" transform="translate(967.71 79.51)"/><path class="cls-70" d="M560.75,216.52a7.54,7.54,0,0,1,1.38,2.11c.11.43,1.72,2.61,2,2.25a2.93,2.93,0,0,0,.44-.58l2.52,4.16s1.4,10.27,1.17,10.61a8,8,0,0,1-2.64,1.08,1.49,1.49,0,0,1-1.65-1.4C563.86,233.56,560.75,216.52,560.75,216.52Z" transform="translate(967.71 79.51)"/><polygon class="cls-71" points="1527.95 294.06 1534.19 340.39 1539.8 340.71 1534.52 301.52 1534.72 312.13 1532.54 307.82 1532.65 312.16 1527.95 294.06"/><path class="cls-72" d="M571.11,261.14c-1.27-9.13-3-20.9-4.32-28.95l-1.47-2.91c.7,8,2.2,21.75,3.31,31.72Z" transform="translate(967.71 79.51)"/><path class="cls-73" d="M547,259.78a11.85,11.85,0,0,0,1.42-4.61c.12-2.81-.56-12.48,3.08-16.06a4.7,4.7,0,0,1,.89-.69c.12-.08.24-.16.37-.23,2.79-1.53,6.13-1.14,9,.22a10.92,10.92,0,0,1,6.64,6.56,3.6,3.6,0,0,1,.12.44,5.22,5.22,0,0,1,.2,1.16c.3,5.29-6.45,11.74-8.18,13.86l-.09.11Z" transform="translate(967.71 79.51)"/><path class="cls-74" d="M563.32,241.63l-3.3-.2s-.72.53-.61.92a4.86,4.86,0,0,0,.53,1.63c.33.37,1,.33.91.62s-.42,1.39-.42,1.39a1.88,1.88,0,0,1,.32,1.09c0,.67.56.86-.12,1.29s-2.3.86-2.58,1.47a5.13,5.13,0,0,0-.87,2.32c-.12,1.29,0,2.3-.16,3.46s.34,3.24.4,2.81a28.05,28.05,0,0,1,1.93-5c.55-.77,1.51-2.49,2.71-2.64s2.14.13,2.28-.53a29,29,0,0,1,.32-3.06,6.36,6.36,0,0,1,1.65-.8s.92.62.21-.7A33,33,0,0,0,563.32,241.63Z" transform="translate(967.71 79.51)"/><path class="cls-75" d="M560.2,239.15s-5,.77-6.5,4.54-.79,9.71-1,12.31-1.22,3.52-1.92,2.2-1.83-6.74.09-12S555.6,238.51,560.2,239.15Z" transform="translate(967.71 79.51)"/><path class="cls-75" d="M555.63,244c-1.2,1.67-1.94,3.08-1.34,5.48s1.62-.42,1.9-2.55S557.32,241.83,555.63,244Z" transform="translate(967.71 79.51)"/></g><path class="cls-76" d="M133,426.5,96.48,405.6c-2.43-1.41-6.67-1.23-9.47.39l-10.14,5.82,6.66,3.85H72.36L98.42,437.8h20.34a12.89,12.89,0,0,0,6.43-1.73l7.15-4.1C135.14,430.35,135.45,427.91,133,426.5Z" transform="translate(967.71 79.51)"/><path class="cls-77" d="M23.75,395.39l17-29.46-3.06-1.76h0c-2.19-1.23-5.19-1-8.51.88-6.66,3.85-12.06,13.17-12.06,20.81,0,3.84,1.36,6.53,3.56,7.77h0Z" transform="translate(967.71 79.51)"/><path class="cls-78" d="M33.59,378.35l-11.45-6.61a23.12,23.12,0,0,1,7.05-6.69c3.32-1.91,6.33-2.11,8.51-.88h0l3.06,1.76Z" transform="translate(967.71 79.51)"/><path class="cls-79" d="M26.67,390.34l-9.51-5.48a26.28,26.28,0,0,1,5-13.12l11.45,6.61Z" transform="translate(967.71 79.51)"/><ellipse class="cls-80" cx="32.25" cy="380.66" rx="17.01" ry="9.82" transform="translate(655.06 295.9) rotate(-59.69)"/><path class="cls-8" d="M77,426.12l17-29.46L40.67,365.89h0c-2.18-1.23-5.18-1-8.5.88-6.66,3.85-12.06,13.17-12.06,20.81,0,3.84,1.36,6.53,3.56,7.76h0Z" transform="translate(967.71 79.51)"/><path class="cls-81" d="M86.82,409.08l-61.7-35.63a23.2,23.2,0,0,1,7.05-6.68c3.32-1.91,6.32-2.11,8.5-.88h0L94,396.66Z" transform="translate(967.71 79.51)"/><path class="cls-82" d="M79.89,421.07l-59.75-34.5a26.35,26.35,0,0,1,5-13.12l61.7,35.63Z" transform="translate(967.71 79.51)"/><ellipse class="cls-82" cx="85.48" cy="411.39" rx="17.01" ry="9.82" transform="matrix(0.5, -0.86, 0.86, 0.5, 654.89, 357.07)"/><path class="cls-77" d="M95.85,437l17-29.46L94,396.66h0c-2.18-1.23-5.18-1-8.5.89-6.66,3.84-12.06,13.16-12.06,20.8,0,3.84,1.36,6.53,3.56,7.77h0Z" transform="translate(967.71 79.51)"/><path class="cls-78" d="M105.7,420,78.42,404.23a23.12,23.12,0,0,1,7-6.69c3.32-1.91,6.32-2.11,8.5-.88h0l18.89,10.9Z" transform="translate(967.71 79.51)"/><path class="cls-79" d="M98.77,432,73.44,417.35a26.31,26.31,0,0,1,5-13.12L105.7,420Z" transform="translate(967.71 79.51)"/><ellipse class="cls-80" cx="104.36" cy="422.29" rx="17.01" ry="9.82" transform="matrix(0.5, -0.86, 0.86, 0.5, 654.84, 378.77)"/><ellipse class="cls-83" cx="104.36" cy="422.29" rx="13.82" ry="7.98" transform="translate(654.84 378.77) rotate(-59.69)"/><path class="cls-77" d="M99.34,424.29a9.35,9.35,0,0,1,4.24-7.31c2.35-1.35,4.24-.27,4.24,2.42a9.31,9.31,0,0,1-4.24,7.31C101.24,428.06,99.34,427,99.34,424.29Z" transform="translate(967.71 79.51)"/><path class="cls-79" d="M113.35,416.17c0,6.21-4.39,13.78-9.8,16.91-2.51,1.45-4.8,1.67-6.54.89,1.8,1.3,4.42,1.26,7.35-.43,5.41-3.12,9.8-10.69,9.8-16.91,0-3.32-1.26-5.57-3.27-6.48C112.42,411.25,113.35,413.31,113.35,416.17Z" transform="translate(967.71 79.51)"/><path class="cls-81" d="M103.78,428.41l5.59-9.67-2.62-1.52h0a2.83,2.83,0,0,0-2.8.29,8.77,8.77,0,0,0-4,6.84,2.75,2.75,0,0,0,1.17,2.55h0Z" transform="translate(967.71 79.51)"/><path class="cls-84" d="M107,422.81l-5.38-3.1a7.63,7.63,0,0,1,2.31-2.2,2.83,2.83,0,0,1,2.8-.29h0l2.62,1.51Z" transform="translate(967.71 79.51)"/><path class="cls-85" d="M104.74,426.75,100,424a8.64,8.64,0,0,1,1.64-4.31l5.38,3.1Z" transform="translate(967.71 79.51)"/><path class="cls-82" d="M102.61,425.86a8.72,8.72,0,0,1,4-6.83c2.19-1.27,4-.26,4,2.26a8.71,8.71,0,0,1-4,6.83C104.39,429.39,102.61,428.37,102.61,425.86Z" transform="translate(967.71 79.51)"/><path class="cls-84" d="M104.37,425.56a6.21,6.21,0,0,1,2.82-4.87c1.57-.9,2.83-.18,2.83,1.61a6.2,6.2,0,0,1-2.83,4.87C105.63,428.07,104.37,427.35,104.37,425.56Z" transform="translate(967.71 79.51)"/><path class="cls-86" d="M69.29,399l-34.45-19.9a3,3,0,0,1-.7-4.64,20.71,20.71,0,0,1,4.69-3.8A11.6,11.6,0,0,1,43.51,369a6.47,6.47,0,0,1,3.83.73l39.41,22.76a6.5,6.5,0,0,0-3.82-.74,11.58,11.58,0,0,0-4.68,1.63,21.84,21.84,0,0,0-5.79,5A2.51,2.51,0,0,1,69.29,399Z" transform="translate(967.71 79.51)"/><path class="cls-76" d="M173.52,346.74,130.72,322c-3.33-1.93-9.15-1.69-13,.53L74.51,347.3c-3.84,2.22-4.26,5.58-.93,7.5l21.71,12.58H86.52l8.83,13.48h27.24v0a14.77,14.77,0,0,0,6.78-1.82l43.22-24.78C176.43,352,176.85,348.67,173.52,346.74Z" transform="translate(967.71 79.51)"/><g class="cls-2"><path class="cls-8" d="M43.24,350.5l.25-87.34a3.53,3.53,0,0,0,2.08,2.92l-.24,87.34A3.53,3.53,0,0,1,43.24,350.5Z" transform="translate(967.71 79.51)"/><path class="cls-8" d="M118.7,280.35l-.25,87.35a3.51,3.51,0,0,1-2,2.88l.25-87.35A3.5,3.5,0,0,0,118.7,280.35Z" transform="translate(967.71 79.51)"/><polygon class="cls-87" points="1084.36 362.74 1084.11 450.09 1068.49 459.17 1068.74 371.82 1084.36 362.74"/><polygon class="cls-82" points="1058.72 371.82 1058.47 459.17 1013.04 432.93 1013.29 345.59 1058.72 371.82"/><path class="cls-8" d="M101,292.31l-.25,87.35a11.06,11.06,0,0,1-10,0L91,292.31A11.06,11.06,0,0,0,101,292.31Z" transform="translate(967.71 79.51)"/><path class="cls-81" d="M116.61,277.43c2.78,1.6,2.79,4.2,0,5.8L101,292.31a11.06,11.06,0,0,1-10,0L45.57,266.08c-2.77-1.6-2.78-4.2,0-5.8l15.62-9.08a11.06,11.06,0,0,1,10,0Z" transform="translate(967.71 79.51)"/><path class="cls-82" d="M110.67,276.48c2.3,1.33,2.32,3.5,0,4.83l-13,7.56a9.21,9.21,0,0,1-8.34,0L51.52,267c-2.31-1.33-2.32-3.5,0-4.83l13-7.56a9.21,9.21,0,0,1,8.34,0Z" transform="translate(967.71 79.51)"/><path class="cls-87" d="M51.5,264.64l13-7.55a9.15,9.15,0,0,1,8.34,0l37.83,21.83a4,4,0,0,1,1.34,1.21c.81-1.22.36-2.66-1.34-3.65L72.84,254.64a9.21,9.21,0,0,0-8.34,0l-13,7.56c-1.69,1-2.12,2.41-1.32,3.62A4,4,0,0,1,51.5,264.64Z" transform="translate(967.71 79.51)"/></g><path class="cls-85" d="M86.28,285.73l-12.4-7.16,17.41-10.06,12.4,7.16c4.17,2.41,3.65,6.61-1.16,9.39h0C97.72,287.83,90.44,288.13,86.28,285.73Z" transform="translate(967.71 79.51)"/><path class="cls-81" d="M101.22,283.82a16.64,16.64,0,0,1-15.07,0c-4.17-2.41-4.19-6.31-.05-8.7a16.64,16.64,0,0,1,15.07,0C105.34,277.53,105.36,281.43,101.22,283.82Z" transform="translate(967.71 79.51)"/><path class="cls-87" d="M103.32,271.93H84v6.6h0c0,1.42,1,2.84,2.85,3.93a15.08,15.08,0,0,0,13.66,0c1.89-1.09,2.83-2.52,2.81-4h0Z" transform="translate(967.71 79.51)"/><path class="cls-82" d="M92.14,271.93V284a13.15,13.15,0,0,1-5.29-1.57C85,281.37,84,280,84,278.53h0v-6.6Z" transform="translate(967.71 79.51)"/><path class="cls-8" d="M100,271.93v10.82A14.9,14.9,0,0,1,92.14,284v-12.1Z" transform="translate(967.71 79.51)"/><path class="cls-85" d="M100.51,275.89a15.08,15.08,0,0,1-13.66,0c-3.79-2.18-3.8-5.71,0-7.88a15.08,15.08,0,0,1,13.66,0C104.25,270.19,104.27,273.72,100.51,275.89Z" transform="translate(967.71 79.51)"/><path class="cls-87" d="M99.59,275.36a13.08,13.08,0,0,1-11.83,0c-3.28-1.9-3.29-4.95,0-6.83a13.08,13.08,0,0,1,11.83,0C102.83,270.42,102.85,273.48,99.59,275.36Z" transform="translate(967.71 79.51)"/><path class="cls-8" d="M87.73,269.07a13.08,13.08,0,0,1,11.83,0,4.33,4.33,0,0,1,2.44,3.16c.14-1.34-.67-2.7-2.44-3.72a13.08,13.08,0,0,0-11.83,0c-1.75,1-2.55,2.35-2.41,3.67A4.28,4.28,0,0,1,87.73,269.07Z" transform="translate(967.71 79.51)"/><path class="cls-88" d="M85,371.75,50.58,351.94a4.3,4.3,0,0,1-2.16-3.73V275.68A2,2,0,0,1,51.34,274L86.81,294.4a2.18,2.18,0,0,1,1.1,1.91v73.75A2,2,0,0,1,85,371.75Z" transform="translate(967.71 79.51)"/><polygon class="cls-85" points="1049.23 343.65 1045.92 350.89 1033.42 352.83 1024.24 347.53 1027.56 340.29 1040.05 338.35 1049.23 343.65"/><g class="cls-2"><polygon class="cls-87" points="1047.51 335.74 1047.49 343.38 1044.64 349.63 1044.66 341.99 1047.51 335.74"/><polygon class="cls-8" points="1044.66 341.99 1044.64 349.63 1033.86 351.31 1033.88 343.66 1044.66 341.99"/><polygon class="cls-82" points="1033.88 343.66 1033.86 351.31 1025.94 346.74 1025.96 339.09 1033.88 343.66"/><polygon class="cls-85" points="1047.51 335.74 1044.66 341.99 1033.88 343.66 1025.96 339.09 1028.82 332.85 1039.6 331.17 1047.51 335.74"/><polygon class="cls-87" points="1045.24 336.1 1042.99 341.03 1034.48 342.35 1028.23 338.74 1030.49 333.81 1038.99 332.49 1045.24 336.1"/><polygon class="cls-8" points="1030.49 336.89 1038.99 335.56 1044.13 338.53 1045.24 336.1 1038.99 332.49 1030.49 333.81 1028.23 338.74 1029.35 339.38 1030.49 336.89"/></g><path class="cls-76" d="M188.09,379.05c-6.51-3.76-15.17-5.49-23.67-5.23v-.05H140.53l6.53,35.75h17.36v0c8.56.32,17.29-1.38,23.81-5.14C200.3,397.39,200.23,386.06,188.09,379.05Z" transform="translate(967.71 79.51)"/><path class="cls-89" d="M179.39,382.7h-62v8.95h0c0,4.56,3.1,9.12,9.14,12.61,12.14,7,31.77,7.05,43.83.08,6.06-3.5,9.06-8.09,9-12.69h0Z" transform="translate(967.71 79.51)"/><path class="cls-90" d="M143.52,382.7v26.6a42,42,0,0,1-17-5c-6-3.49-9.1-8.05-9.14-12.61h0V382.7Z" transform="translate(967.71 79.51)"/><path class="cls-91" d="M168.76,382.7v22.5c-7.12,3.58-16.42,4.94-25.24,4.1V382.7Z" transform="translate(967.71 79.51)"/><ellipse class="cls-92" cx="148.4" cy="382.7" rx="17.89" ry="30.99" transform="translate(732.61 608.53) rotate(-89.69)"/><ellipse class="cls-86" cx="148.4" cy="382.7" rx="15.49" ry="26.84" transform="translate(732.61 608.53) rotate(-89.69)"/><polygon class="cls-93" points="1121.98 463.22 1133.9 456.3 1129.72 453.88 1117.8 460.81 1105.8 453.88 1101.64 456.3 1113.64 463.23 1101.72 470.16 1104.43 471.73 1104.19 471.73 1104.19 472.57 1105.89 472.57 1117.82 465.64 1128.38 471.75 1128.11 472.57 1129.82 472.57 1133.98 470.15 1121.98 463.22"/><g class="cls-2"><polygon class="cls-87" points="1132.2 454.42 1132.2 456.3 1120.28 463.22 1120.28 461.35 1132.2 454.42"/><polygon class="cls-82" points="1111.94 461.35 1111.94 463.23 1099.94 456.3 1099.94 454.43 1111.94 461.35"/><polygon class="cls-82" points="1128.12 470.69 1128.11 472.57 1116.11 465.64 1116.12 463.76 1128.12 470.69"/><polygon class="cls-87" points="1132.28 468.27 1132.28 470.15 1128.11 472.57 1128.12 470.69 1132.28 468.27"/><polygon class="cls-82" points="1104.2 470.69 1104.19 472.57 1100.02 470.16 1100.02 468.28 1104.2 470.69"/><polygon class="cls-87" points="1116.12 463.76 1116.11 465.64 1104.19 472.57 1104.2 470.69 1116.12 463.76"/><polygon class="cls-81" points="1132.2 454.42 1120.28 461.35 1132.28 468.27 1128.12 470.69 1116.12 463.76 1104.2 470.69 1100.02 468.28 1111.94 461.35 1099.94 454.43 1104.11 452.01 1116.11 458.93 1128.03 452.01 1132.2 454.42"/></g><path class="cls-91" d="M129.36,373.53c10.45-6,27.44-6,37.95.07,4.88,2.82,7.48,6.44,7.85,10.12.44-4.28-2.16-8.66-7.85-11.94-10.51-6.07-27.5-6.1-37.95-.07-5.59,3.23-8.15,7.55-7.72,11.79C122,379.87,124.56,376.3,129.36,373.53Z" transform="translate(967.71 79.51)"/></g></g></svg>